<svg width="5" height="20" viewBox="0 0 5 20" fill="none" xmlns="http://www.w3.org/2000/svg">
<g clip-path="url(#clip0)">
<path fill-rule="evenodd" clip-rule="evenodd" d="M5 2.5C5 3.88071 3.88071 5 2.5 5C1.11929 5 0 3.88071 0 2.5C0 1.11929 1.11929 0 2.5 0C3.88071 0 5 1.11929 5 2.5ZM5 12.5C5 13.8807 3.88071 15 2.5 15C1.11929 15 0 13.8807 0 12.5C0 11.1193 1.11929 10 2.5 10C3.88071 10 5 11.1193 5 12.5ZM2.5 25C3.88071 25 5 23.8807 5 22.5C5 21.1193 3.88071 20 2.5 20C1.11929 20 0 21.1193 0 22.5C0 23.8807 1.11929 25 2.5 25ZM5 32.5C5 33.8807 3.88071 35 2.5 35C1.11929 35 0 33.8807 0 32.5C0 31.1193 1.11929 30 2.5 30C3.88071 30 5 31.1193 5 32.5ZM2.5 45C3.88071 45 5 43.8807 5 42.5C5 41.1193 3.88071 40 2.5 40C1.11929 40 0 41.1193 0 42.5C0 43.8807 1.11929 45 2.5 45ZM5 52.5C5 53.8807 3.88071 55 2.5 55C1.11929 55 0 53.8807 0 52.5C0 51.1193 1.11929 50 2.5 50C3.88071 50 5 51.1193 5 52.5ZM2.5 65C3.88071 65 5 63.8807 5 62.5C5 61.1193 3.88071 60 2.5 60C1.11929 60 0 61.1193 0 62.5C0 63.8807 1.11929 65 2.5 65ZM5 72.5C5 73.8807 3.88071 75 2.5 75C1.11929 75 0 73.8807 0 72.5C0 71.1193 1.11929 70 2.5 70C3.88071 70 5 71.1193 5 72.5ZM2.5 85C3.88071 85 5 83.8807 5 82.5C5 81.1193 3.88071 80 2.5 80C1.11929 80 0 81.1193 0 82.5C0 83.8807 1.11929 85 2.5 85ZM5 92.5C5 93.8807 3.88071 95 2.5 95C1.11929 95 0 93.8807 0 92.5C0 91.1193 1.11929 90 2.5 90C3.88071 90 5 91.1193 5 92.5ZM2.5 105C3.88071 105 5 103.881 5 102.5C5 101.119 3.88071 100 2.5 100C1.11929 100 0 101.119 0 102.5C0 103.881 1.11929 105 2.5 105Z" fill="white"/>
</g>
<defs>
<clipPath id="clip0">
<rect width="5" height="20" fill="white"/>
</clipPath>
</defs>
</svg>
