<svg width="11" height="7" viewBox="0 0 11 7" fill="none" xmlns="http://www.w3.org/2000/svg">
<path d="M7.10352 6.33789C7.00586 6.25977 6.9668 6.14258 6.9668 6.00586C6.9668 5.88867 7.00586 5.77148 7.10352 5.69336L8.95898 3.81836H1.0293C0.755859 3.81836 0.560547 3.62305 0.560547 3.34961C0.560547 3.0957 0.755859 2.88086 1.0293 2.88086H8.95898L7.10352 1.02539C6.9082 0.849609 6.9082 0.556641 7.10352 0.380859C7.2793 0.185547 7.57227 0.185547 7.76758 0.380859L10.4238 3.03711C10.5996 3.21289 10.5996 3.50586 10.4238 3.68164L7.76758 6.33789C7.57227 6.5332 7.2793 6.5332 7.10352 6.33789Z" fill="#B2B7BE"/>
</svg>
