<svg width="16" height="16" viewBox="0 0 16 16" fill="none" xmlns="http://www.w3.org/2000/svg">
<path fill-rule="evenodd" clip-rule="evenodd" d="M5.94634 10.0623C3.67213 10.0623 1.82971 8.21998 1.82971 5.9459C1.82971 3.67273 3.67213 1.82949 5.94634 1.82949C8.21964 1.82949 10.063 3.67273 10.063 5.9459C10.063 8.21998 8.21964 10.0623 5.94634 10.0623ZM11.4369 10.0623H10.7106L10.4581 9.81168C11.35 8.7716 11.8925 7.42325 11.8925 5.94592C11.8925 2.66194 9.23042 0 5.94625 0C2.66209 0 0 2.66194 0 5.94592C0 9.22989 2.66209 11.8918 5.94625 11.8918C7.42367 11.8918 8.77118 11.3503 9.81132 10.4593L10.0638 10.71V11.4345L14.636 16L16 14.6361L11.4369 10.0623Z" fill="white" fill-opacity="0.5"/>
</svg>
