<?xml version="1.0" encoding="utf-8"?><svg xmlns="http://www.w3.org/2000/svg" xmlns:xlink="http://www.w3.org/1999/xlink"><symbol fill="none" viewBox="0 0 5 20" id="bg-dots" xmlns="http://www.w3.org/2000/svg"><g clip-path="url(#aaclip0)"><path fill-rule="evenodd" clip-rule="evenodd" d="M5 2.5a2.5 2.5 0 11-5 0 2.5 2.5 0 015 0zm0 10a2.5 2.5 0 11-5 0 2.5 2.5 0 015 0zM2.5 25a2.5 2.5 0 100-5 2.5 2.5 0 000 5zM5 32.5a2.5 2.5 0 11-5 0 2.5 2.5 0 015 0zM2.5 45a2.5 2.5 0 100-5 2.5 2.5 0 000 5zM5 52.5a2.5 2.5 0 11-5 0 2.5 2.5 0 015 0zM2.5 65a2.5 2.5 0 100-5 2.5 2.5 0 000 5zM5 72.5a2.5 2.5 0 11-5 0 2.5 2.5 0 015 0zM2.5 85a2.5 2.5 0 100-5 2.5 2.5 0 000 5zM5 92.5a2.5 2.5 0 11-5 0 2.5 2.5 0 015 0zM2.5 105a2.5 2.5 0 100-5 2.5 2.5 0 000 5z" fill="#fff"/></g><defs><clipPath id="aaclip0"><path fill="#fff" d="M0 0h5v20H0z"/></clipPath></defs></symbol><symbol fill="none" viewBox="0 0 335 100" id="bg-ticket-info" xmlns="http://www.w3.org/2000/svg"><path fill-rule="evenodd" clip-rule="evenodd" d="M0 10C0 4.477 4.477 0 10 0h315c5.523 0 10 4.477 10 10v16.478c-6.153 5.75-10 13.936-10 23.022 0 9.086 3.847 17.273 10 23.022V90c0 5.523-4.477 10-10 10H10c-5.523 0-10-4.477-10-10V72.522c6.153-5.75 10-13.936 10-23.022 0-9.086-3.847-17.273-10-23.022V10z" fill="url(#abpaint0_linear)"/><defs><linearGradient id="abpaint0_linear" x1="288" y1="-83" x2="326.5" y2="67" gradientUnits="userSpaceOnUse"><stop stop-color="#209CFF"/><stop offset="1" stop-color="#826FFF"/></linearGradient></defs></symbol><symbol fill="none" viewBox="0 0 24 24" id="cup-1" xmlns="http://www.w3.org/2000/svg"><path d="M23.27 4.977V3.08c-.06-.654-.47-1.088-1.057-1.151h-3.55v-.841c0-.59-.47-1.088-1.027-1.088H5.318C4.76 0 4.29.498 4.29 1.088v.84H1.064C.477 1.96.067 2.427.007 3.08v1.897c-.03.498-.176 5.316 4.694 6.125.763 2.268 2.524 4.073 4.754 4.755v3.077L5.58 20.891s-.03 0-.03.032c-.556.343-.85.84-.85 1.399v.653c.06.622.47 1.025 1.087 1.025h11.411c.617 0 1.057-.403 1.086-1.025v-.653c0-.558-.293-1.056-.85-1.399l-.03-.032-3.813-1.928v-3.135c2.14-.685 3.873-2.455 4.664-4.694 1.643-.22 2.903-.87 3.784-1.958 1.35-1.712 1.23-3.888 1.23-4.2zM4.408 9.89C.8 8.99 1.064 5.26 1.094 5.072V3.143 3.08H4.29v5.472c0 .218 0 .403.03.621v.064c.027.218.057.403.087.653 0-.032 0-.032 0 0zm12.791 12.403v.53H5.758v-.53c0-.155.176-.31.293-.374l3.99-1.99h2.874l3.99 1.99c.117.063.294.219.294.374zm-4.724-6.125v2.61H10.54v-2.61h1.936zm-.997-1.149c-2.757 0-5.074-1.928-5.837-4.57-.03-.156-.087-.311-.117-.467-.06-.279-.087-.59-.117-.869v-.092c0-.156-.03-.28-.03-.435V1.154h12.175v7.369c0 .155 0 .28-.03.435v.092c0 .123-.03.279-.03.403v.031c-.03.156-.06.28-.087.435 0 .032 0 .063-.03.092-.03.124-.06.248-.086.374-.737 2.674-3.083 4.634-5.81 4.634zm9.711-6.56c-.616.778-1.496 1.276-2.64 1.492v-.032c.03-.219.06-.403.087-.622v-.063c.03-.219.03-.435.03-.654V3.083h3.52v1.992c0 .028.147 1.922-.997 3.385zm-10.827 3.855c-.087.219-.293.374-.5.374-.06 0-.117 0-.206-.032-1.79-.714-2.17-2.423-2.14-3.2V3.611c0-.31.233-.558.526-.558.294 0 .527.247.527.558v5.875c0 .092-.06 1.523 1.437 2.113a.528.528 0 01.356.714z" fill="#FFDF5E"/></symbol><symbol fill="none" viewBox="0 0 23 24" id="cup-2" xmlns="http://www.w3.org/2000/svg"><path d="M22.997 4.977V3.08c-.059-.654-.464-1.088-1.044-1.151h-3.509v-.841C18.444.498 17.98 0 17.43 0H5.255c-.55 0-1.014.498-1.014 1.088v.84H1.05C.472 1.96.067 2.427.008 3.08v1.897c-.03.498-.174 5.316 4.64 6.125.753 2.268 2.493 4.073 4.697 4.755v3.077l-3.828 1.957s-.03 0-.03.032c-.55.343-.84.84-.84 1.399v.653c.06.622.465 1.025 1.074 1.025h11.277c.61 0 1.045-.403 1.074-1.025v-.653c0-.558-.29-1.056-.84-1.399l-.03-.032-3.769-1.928v-3.135c2.116-.685 3.829-2.455 4.61-4.694 1.624-.22 2.87-.87 3.74-1.958 1.334-1.712 1.215-3.888 1.215-4.2zM4.357 9.89C.79 8.99 1.051 5.26 1.08 5.072V3.143 3.08H4.241v5.472c0 .218 0 .403.03.621v.064c.026.218.056.403.085.653 0-.032 0-.032 0 0zm12.64 12.403v.53H5.69v-.53c0-.155.175-.31.29-.374l3.944-1.99h2.84l3.944 1.99c.115.063.29.219.29.374zm-4.668-6.125v2.61h-1.914v-2.61h1.914zm-.985-1.149c-2.725 0-5.015-1.928-5.77-4.57-.029-.156-.085-.311-.114-.467-.06-.279-.086-.59-.116-.869v-.092c0-.156-.03-.28-.03-.435V1.154h12.032v7.369c0 .155 0 .28-.03.435v.092c0 .123-.029.279-.029.403v.031c-.03.156-.059.28-.085.435 0 .032 0 .063-.03.092-.03.124-.06.248-.086.374-.727 2.674-3.047 4.634-5.742 4.634zm9.597-6.56c-.61.778-1.48 1.276-2.61 1.492v-.032c.03-.219.06-.403.087-.622v-.063c.03-.219.03-.435.03-.654V3.083H21.926v1.992c0 .028.144 1.922-.986 3.385zm-10.7 3.855c-.086.219-.29.374-.494.374-.06 0-.116 0-.204-.032-1.77-.714-2.145-2.423-2.116-3.2V3.611c0-.31.231-.558.521-.558.29 0 .52.247.52.558v5.875c0 .092-.058 1.523 1.42 2.113a.53.53 0 01.353.714z" fill="#209CFE"/></symbol><symbol fill="none" viewBox="0 0 23 24" id="cup-3" xmlns="http://www.w3.org/2000/svg"><path d="M22.997 4.977V3.08c-.059-.654-.464-1.088-1.044-1.151h-3.509v-.841C18.444.498 17.98 0 17.43 0H5.255c-.55 0-1.014.498-1.014 1.088v.84H1.05C.472 1.96.067 2.427.008 3.08v1.897c-.03.498-.174 5.316 4.64 6.125.753 2.268 2.493 4.073 4.697 4.755v3.077l-3.828 1.957s-.03 0-.03.032c-.55.343-.84.84-.84 1.399v.653c.06.622.465 1.025 1.074 1.025h11.277c.61 0 1.045-.403 1.074-1.025v-.653c0-.558-.29-1.056-.84-1.399l-.03-.032-3.769-1.928v-3.135c2.116-.685 3.829-2.455 4.61-4.694 1.624-.22 2.87-.87 3.74-1.958 1.334-1.712 1.215-3.888 1.215-4.2zM4.357 9.89C.79 8.99 1.051 5.26 1.08 5.072V3.143 3.08H4.241v5.472c0 .218 0 .403.03.621v.064c.026.218.056.403.085.653 0-.032 0-.032 0 0zm12.64 12.403v.53H5.69v-.53c0-.155.175-.31.29-.374l3.944-1.99h2.84l3.944 1.99c.115.063.29.219.29.374zm-4.668-6.125v2.61h-1.914v-2.61h1.914zm-.985-1.149c-2.725 0-5.015-1.928-5.77-4.57-.029-.156-.085-.311-.114-.467-.06-.279-.086-.59-.116-.869v-.092c0-.156-.03-.28-.03-.435V1.154h12.032v7.369c0 .155 0 .28-.03.435v.092c0 .123-.029.279-.029.403v.031c-.03.156-.059.28-.085.435 0 .032 0 .063-.03.092-.03.124-.06.248-.086.374-.727 2.674-3.047 4.634-5.742 4.634zm9.597-6.56c-.61.778-1.48 1.276-2.61 1.492v-.032c.03-.219.06-.403.087-.622v-.063c.03-.219.03-.435.03-.654V3.083H21.926v1.992c0 .028.144 1.922-.986 3.385zm-10.7 3.855c-.086.219-.29.374-.494.374-.06 0-.116 0-.204-.032-1.77-.714-2.145-2.423-2.116-3.2V3.611c0-.31.231-.558.521-.558.29 0 .52.247.52.558v5.875c0 .092-.058 1.523 1.42 2.113a.53.53 0 01.353.714z" fill="#826FFF"/></symbol><symbol fill="none" viewBox="0 0 32 32" id="facebook" xmlns="http://www.w3.org/2000/svg"><path fill="currentColor" d="M16 1.229c-8.158 0-14.771 6.613-14.771 14.77 0 8.159 6.613 14.772 14.771 14.772 8.158 0 14.771-6.613 14.771-14.771 0-8.158-6.613-14.771-14.771-14.771zm4.844 15.594c-.594-.01-1.136.007-1.826-.022-.111-.006-1.908.021-1.902.054.13.799-.057 1.647-.046 2.455.007.47.145 4.73.081 6.3l-3.559.033c-.015-1.338.05-2.713-.007-4.478-.012-.362-.024-4.18-.066-4.38l-2.309.016s-.01-1.41-.01-1.886v-1.403s1.836-.102 2.364-.148c0 0 .053-1.787.126-2.366.084-.66.093-1.329.48-1.914.712-1.07 1.414-2.014 2.722-2.299.495-.108 3.757-.75 3.878-.222l-.074 3.177c-.887 0-1.95-.09-2.855.583-.504.375-.644.687-.695 1.304-.03.359-.037 1.81-.037 1.81.478.069 1.186.039 1.7 0 .58-.042 2.07.111 2.07.111 0 .961-.039 3.18-.035 3.275z"/></symbol><symbol fill="none" viewBox="0 0 158 158" id="icon-anonymous-avatar" xmlns="http://www.w3.org/2000/svg"><circle cx="79" cy="79" r="78.261" fill="#fff"/><path d="M139.463 129.231a78.687 78.687 0 0015.416-70.95A78.688 78.688 0 0068.492.935 78.695 78.695 0 00.25 78.999a78.179 78.179 0 0018.287 50.231l-.113.096c.394.473.844.878 1.25 1.344.505.58 1.051 1.125 1.574 1.688a77.447 77.447 0 004.894 4.894c.517.472 1.052.911 1.575 1.361a78.585 78.585 0 005.569 4.399c.247.168.472.388.72.562v-.067a78.192 78.192 0 0090 0v.067c.247-.174.467-.394.72-.562a81.532 81.532 0 005.568-4.399c.524-.45 1.058-.894 1.575-1.361a78.718 78.718 0 004.894-4.894c.523-.563 1.063-1.108 1.575-1.688.4-.466.855-.871 1.249-1.35l-.124-.09zM79 34.001a25.312 25.312 0 110 50.624A25.312 25.312 0 0179 34zm-44.96 95.23A28.1 28.1 0 0162.124 101.5h33.75a28.107 28.107 0 0128.086 27.731 67.164 67.164 0 01-89.922 0z" fill="#B2B7BE"/></symbol><symbol fill="none" viewBox="0 0 11 7" id="icon-arrow-breadcrumbs" xmlns="http://www.w3.org/2000/svg"><path d="M7.104 6.338c-.098-.078-.137-.195-.137-.332 0-.117.039-.235.137-.313l1.855-1.875h-7.93a.451.451 0 01-.468-.468c0-.254.195-.47.468-.47h7.93L7.104 1.026a.428.428 0 010-.644c.175-.195.468-.195.664 0l2.656 2.656a.46.46 0 010 .645L7.768 6.338c-.196.195-.489.195-.664 0z" fill="#B2B7BE"/></symbol><symbol fill="none" viewBox="0 0 9 6" id="icon-arrow-down" xmlns="http://www.w3.org/2000/svg"><path d="M4.31 5.145L.987 1.463a.4.4 0 010-.53L1.19.71a.324.324 0 01.487 0l2.877 3.197L7.43.713a.324.324 0 01.487 0l.203.222a.4.4 0 010 .532l-3.323 3.68a.327.327 0 01-.487-.002z" fill="#B2B7BE"/></symbol><symbol fill="none" viewBox="0 0 12 8" id="icon-arrow-down-select" xmlns="http://www.w3.org/2000/svg"><path d="M10.187.793L5.894 5.086 1.6.793.187 2.207l5.707 5.707L11.6 2.207 10.187.793z" fill="currentColor"/></symbol><symbol fill="none" viewBox="0 0 10 10" id="icon-arrow-right" xmlns="http://www.w3.org/2000/svg"><path d="M3 1l4.46 4L3 9" stroke="#fff" stroke-width="1.5" stroke-linecap="round" stroke-linejoin="round"/></symbol><symbol fill="none" viewBox="0 0 14 18" id="icon-bookmark" xmlns="http://www.w3.org/2000/svg"><path d="M12.808 1.118l.01.011.011.01c.278.279.39.561.39.877v14.846L7.28 14.31l-.296-.127-.296.127L.75 16.86V2.017c0-.33.108-.616.354-.887.274-.27.554-.379.865-.379H12c.313 0 .569.109.808.368z" fill="#FFDF5E" stroke="#FFDF5E" stroke-width="1.5"/></symbol><symbol fill="none" viewBox="0 0 24 24" id="icon-bookmark-2" xmlns="http://www.w3.org/2000/svg"><path fill-rule="evenodd" clip-rule="evenodd" d="M3.249 7v11.764a2.749 2.749 0 003.98 2.46 8373.11 8373.11 0 004.658-2.33.252.252 0 01.224 0l4.658 2.33a2.752 2.752 0 003.98-2.46V7a4.75 4.75 0 00-4.75-4.75h-8A4.75 4.75 0 003.249 7zm1.5 0a3.247 3.247 0 013.25-3.25h8A3.247 3.247 0 0119.249 7v11.764a1.25 1.25 0 01-1.809 1.118l-4.658-2.329a1.747 1.747 0 00-1.566 0l-4.658 2.329a1.248 1.248 0 01-1.809-1.118V7z" fill="#B2B7BE"/></symbol><symbol fill="currentColor" viewBox="0 0 14 18" id="icon-bookmark-border" xmlns="http://www.w3.org/2000/svg"><path d="M12.277 1.649l-.02-.022c-.104-.113-.163-.127-.257-.127H1.969c-.094 0-.186.018-.324.149a.506.506 0 00-.145.367v13.707l5.484-2.356 5.485 2.356V2.016c0-.1-.02-.196-.17-.346l-.021-.021zM13.97 18l-6.985-3L0 18V2.016c0-.532.188-1 .563-1.407C.969.203 1.438 0 1.968 0H12c.531 0 .984.203 1.36.61.406.406.609.874.609 1.406V18z"/></symbol><symbol fill="none" viewBox="0 0 35 35" id="icon-calendar" xmlns="http://www.w3.org/2000/svg"><rect width="35" height="35" rx="17.5" fill="#488AFF"/><path fill-rule="evenodd" clip-rule="evenodd" d="M20.18 7.974v-.243a.731.731 0 011.461 0v.243h.73A4.628 4.628 0 0127 12.603v8.769A4.628 4.628 0 0122.372 26h-9.744A4.628 4.628 0 018 21.372v-8.77a4.628 4.628 0 014.628-4.628h.731v-.243a.731.731 0 011.461 0v.243h5.36zm5.358 6.82H9.462v6.578a3.164 3.164 0 003.166 3.166h9.744a3.164 3.164 0 003.166-3.166v-6.577zM13.36 9.437h-.73a3.164 3.164 0 00-3.167 3.167v.73h16.076v-.73a3.164 3.164 0 00-3.166-3.167h-.731v.243a.731.731 0 01-1.461 0v-.243h-5.36v.243a.731.731 0 01-1.461 0v-.243z" fill="#fff"/><path d="M12.385 18.448a.73.73 0 100-1.461.73.73 0 000 1.461zM12.385 21.86a.73.73 0 100-1.462.73.73 0 000 1.462zM15.795 18.448a.73.73 0 100-1.461.73.73 0 000 1.461zM15.795 21.86a.73.73 0 100-1.462.73.73 0 000 1.462zM19.205 18.448a.73.73 0 100-1.461.73.73 0 000 1.461zM19.205 21.86a.73.73 0 100-1.462.73.73 0 000 1.462zM22.615 18.448a.73.73 0 100-1.461.73.73 0 000 1.461zM22.615 21.86a.73.73 0 100-1.462.73.73 0 000 1.462z" fill="#fff"/></symbol><symbol fill="none" viewBox="0 0 18 21" id="icon-calendar-star" xmlns="http://www.w3.org/2000/svg"><path d="M15.45 3H14.2V1.125c0-.313-.313-.625-.625-.625a.642.642 0 00-.625.625V3h-7.5V1.125C5.45.812 5.137.5 4.825.5a.642.642 0 00-.625.625V3H2.95a2.492 2.492 0 00-2.5 2.5V18c0 1.406 1.094 2.5 2.5 2.5h12.5c1.367 0 2.5-1.094 2.5-2.5V5.5c0-1.367-1.133-2.5-2.5-2.5zm1.25 15c0 .703-.586 1.25-1.25 1.25H2.95c-.703 0-1.25-.547-1.25-1.25V8h15v10zm0-11.25h-15V5.5c0-.664.547-1.25 1.25-1.25h12.5c.664 0 1.25.586 1.25 1.25v1.25zM6.27 14.914l-.312 1.797c-.04.39.117.82.43 1.055.351.273.82.273 1.171.078l1.602-.86 1.64.86a.86.86 0 00.508.156c.235 0 .47-.078.664-.234.313-.235.47-.664.43-1.055l-.312-1.797 1.289-1.289c.312-.313.43-.742.273-1.133-.117-.39-.469-.664-.86-.742l-1.835-.273-.781-1.641A1.151 1.151 0 009.2 9.25c-.43 0-.82.234-1.016.586l-.78 1.68-1.837.273c-.39.04-.742.352-.86.742-.155.39-.038.82.274 1.133l1.29 1.25zm1.953-2.266l.977-1.914.938 1.914 2.148.313-1.563 1.523.391 2.149-1.953-1.016-1.914 1.016.39-2.149-1.562-1.523 2.148-.313z" fill="#fff"/></symbol><symbol fill="currentColor" viewBox="0 0 17 17" id="icon-edit" xmlns="http://www.w3.org/2000/svg"><path d="M16.344 2.313L14.656.625a2.113 2.113 0 00-2.968 0L1.75 10.5 1 15.156c-.094.5.344.938.844.844l4.656-.75 9.875-9.938c.813-.812.813-2.156-.031-3zM4.75 9.436l5.313-5.28 2.78 2.78-5.28 5.313v-1.313h-1.5v-1.5H4.75zm-1.187 4.907l-.907-.906.407-2.282.562-.594h1.313v1.5h1.5v1.313l-.594.563-2.281.406zm11.843-10l-1.53 1.531-2.75-2.75 1.53-1.531a.736.736 0 011.032 0l1.687 1.687c.313.313.313.781.031 1.063z"/></symbol><symbol fill="none" viewBox="0 0 24 24" id="icon-email" xmlns="http://www.w3.org/2000/svg"><path fill-rule="evenodd" clip-rule="evenodd" d="M21.75 8A4.75 4.75 0 0017 3.25H7A4.75 4.75 0 002.25 8v8A4.75 4.75 0 007 20.75h10A4.75 4.75 0 0021.75 16V8zm-1.5 0A3.25 3.25 0 0017 4.75H7A3.25 3.25 0 003.75 8v8A3.25 3.25 0 007 19.25h10A3.25 3.25 0 0020.25 16V8z" fill="#B2B7BE"/><path fill-rule="evenodd" clip-rule="evenodd" d="M5.452 8.722l4.164 3.429a3.749 3.749 0 004.768 0l4.093-3.37a.751.751 0 00-.954-1.158l-4.093 3.37c-.83.685-2.03.685-2.86 0l-4.165-3.43a.75.75 0 00-.953 1.159z" fill="#B2B7BE"/></symbol><symbol fill="none" viewBox="0 0 240 160" id="icon-handshake" xmlns="http://www.w3.org/2000/svg"><path d="M240 41.736c-.006-3.643-1.077-7.338-3.447-10.384L217.537 7.02c-3.185-4.045-8.032-6.104-12.875-6.112-2.882 0-5.817.739-8.41 2.356L177.71 14.8c-1.95 1.244-5.293 2.097-8.522 2.075-2.509.011-4.933-.491-6.534-1.282l-18.158-8.795c-2.928-1.41-6.193-1.988-9.476-1.994-4.715.022-9.491 1.181-13.328 3.84l-2.119 1.487c-1.693-.845-4.281-2.133-7.213-3.592-3.515-1.723-7.649-2.418-11.825-2.432-3.772.01-7.543.592-10.854 1.99l-12.368 5.278c-2.013.873-5.214 1.443-8.394 1.429-3.18.013-6.376-.557-8.389-1.43l-12.379-5.28c-2.258-.962-4.671-1.373-7.063-1.376a21.512 21.512 0 00-8.037 1.576c-2.542 1.037-4.901 2.567-6.78 4.666L3.734 36.2A14.605 14.605 0 000 45.96a14.641 14.641 0 005.162 11.16l21.024 17.937-9.973 10.403a14.83 14.83 0 00-4.118 10.268 14.794 14.794 0 004.628 10.775l2.023 1.922c1.906 1.808 4.197 2.959 6.594 3.572-1.202 2.212-1.86 4.637-1.854 7.066a14.816 14.816 0 004.622 10.778l-.005-.003 2.03 1.931a14.99 14.99 0 0010.321 4.099 15.076 15.076 0 005.834-1.175c.655 2.656 2.007 5.181 4.134 7.199l2.03 1.931a14.98 14.98 0 0010.321 4.099c2.889.003 5.79-.848 8.288-2.501.73 2.351 1.983 4.579 3.889 6.39l2.03 1.931a14.97 14.97 0 0010.316 4.099c3.93.003 7.898-1.541 10.829-4.601l8.814-9.204 11.975 11.083a14.919 14.919 0 0010.178 3.974c3.99.008 8.015-1.59 10.952-4.735l1.912-2.048c1.65-1.772 2.727-3.87 3.352-6.059l4.639 4.281a14.989 14.989 0 0010.172 3.963c3.995.002 8.031-1.596 10.971-4.743l1.901-2.045c2.195-2.346 3.431-5.25 3.813-8.217 1.224.314 2.465.526 3.716.526 3.995 0 8.021-1.595 10.963-4.739l1.907-2.046a14.813 14.813 0 003.984-10.129c0-1.12-.161-2.236-.409-3.338 3.314-.439 6.526-1.917 8.97-4.54l1.911-2.048a14.845 14.845 0 003.984-10.132 14.82 14.82 0 00-4.761-10.911l-3.575-3.302 32.268-35.677c2.896-3.212 4.233-7.346 4.238-11.418zm-210.93 62.67c-1.71-.005-3.383-.617-4.689-1.855l-2.026-1.922c-1.402-1.326-2.095-3.09-2.1-4.9.005-1.7.613-3.358 1.865-4.664l20.427-21.316c1.33-1.388 3.106-2.083 4.928-2.086a6.793 6.793 0 014.688 1.858l2.018 1.925s2.089 3.09 2.094 4.903a6.732 6.732 0 01-1.208 3.826c-.068.068-22.046 22.974-22.046 22.974a6.876 6.876 0 01-3.952 1.257zm16.313 21.261c-1.329 1.383-3.101 2.075-4.923 2.081a6.786 6.786 0 01-4.688-1.855l-2.029-1.928-.005-.003c-1.391-1.32-2.09-3.089-2.09-4.901 0-1.698.614-3.357 1.86-4.663 0 0 27.228-28.343 27.457-28.617a6.764 6.764 0 014.71-1.9c1.71.002 3.376.613 4.688 1.854l2.029 1.93c1.396 1.32 2.09 3.088 2.094 4.902a6.726 6.726 0 01-1.865 4.666l-27.238 28.434zm22.315 12.051c-1.325 1.386-3.097 2.079-4.92 2.084a6.774 6.774 0 01-4.687-1.857l-2.035-1.929a6.69 6.69 0 01-2.094-4.9c0-1.516.515-2.987 1.502-4.211l18.962-19.791a6.748 6.748 0 014.543-1.762c1.71.003 3.377.614 4.688 1.855l2.035 1.93c1.391 1.32 2.09 3.088 2.095 4.898a6.74 6.74 0 01-1.866 4.666l-18.223 19.017zm36.029-2.089l-11.506 12.008c-1.325 1.385-3.1 2.079-4.922 2.084a6.778 6.778 0 01-4.688-1.857l-2.03-1.929c-1.39-1.32-2.088-3.089-2.094-4.901.006-1.702.62-3.362 1.866-4.663l11.5-12.008c1.332-1.385 3.107-2.081 4.929-2.084a6.775 6.775 0 014.688 1.857l2.035 1.929c1.39 1.32 2.083 3.087 2.089 4.898-.007 1.701-.62 3.362-1.867 4.666zm99.956-32.574a6.7 6.7 0 01-1.811 4.599l-1.907 2.046c-1.33 1.424-3.136 2.144-4.985 2.146a6.76 6.76 0 01-4.622-1.796l-32.126-29.71-5.555 5.948 34.387 31.856c1.432 1.325 2.151 3.125 2.162 4.963-.011 1.674-.603 3.305-1.811 4.604l-1.901 2.045c-1.33 1.424-3.136 2.141-4.985 2.147-1.677-.005-3.324-.597-4.617-1.795l-32.134-29.709-5.55 5.948 28.518 26.372a6.704 6.704 0 012.079 4.87 6.681 6.681 0 01-1.8 4.598l-1.907 2.046c-1.325 1.423-3.136 2.143-4.99 2.148-1.683-.005-3.325-.597-4.623-1.794l-28.46-26.276h-.005l-.005-.005-5.539 5.958.005.006.107.1 14.255 13.156a6.701 6.701 0 01.122 9.265l-1.907 2.048c-1.33 1.423-3.13 2.138-4.974 2.143-1.677-.005-3.319-.594-4.617-1.796l-12.411-11.493c1.08-2.119 1.683-4.418 1.683-6.725a14.821 14.821 0 00-4.623-10.775l-2.035-1.93a14.95 14.95 0 00-10.31-4.097c-.287 0-.576.066-.857.082 0-.068.016-.139.016-.207.005-3.914-4.622-10.78-4.622-10.78l-2.03-1.925a14.898 14.898 0 00-7.526-3.835c.564-1.598.884-3.261.884-4.928 0-3.913-1.55-7.863-4.623-10.774l-2.029-1.931a14.98 14.98 0 00-10.317-4.102c-.43 0-.856.087-1.284.126-.117-3.758-1.63-7.513-4.576-10.311v-.003l-2.023-1.922a14.971 14.971 0 00-10.317-4.105 14.966 14.966 0 00-10.83 4.601l-4.82 5.031-21.36-18.217A6.535 6.535 0 018.17 45.97a6.493 6.493 0 011.671-4.363l22.538-25.24c.894-1.004 2.217-1.912 3.766-2.542a13.41 13.41 0 014.952-.973c1.432 0 2.776.259 3.851.722l12.373 5.28c3.488 1.47 7.538 2.073 11.607 2.086 4.075-.014 8.119-.617 11.608-2.086l12.367-5.277c1.906-.832 4.783-1.348 7.644-1.337 3.163-.019 6.332.636 8.17 1.574 1.167.58 2.275 1.132 3.303 1.647l-12.614 8.866a14.604 14.604 0 00-6.231 11.956 14.548 14.548 0 002.907 8.724l-.005-.005 1.666 2.238c3.163 4.206 8.097 6.368 13.027 6.38 2.785 0 5.621-.704 8.149-2.22l7.543-4.53c1.539-.942 3.862-1.536 6.264-1.525 2.823-.017 5.667.818 7.377 2.075l20.869 14.961c4.644 3.327 12.209 9.499 16.401 13.382l24.154 22.333c1.43 1.326 2.15 3.118 2.156 4.959zm26.022-55.33l-32.177 35.581-14.61-13.505c-4.576-4.224-12.122-10.384-17.183-14.02L144.872 40.82c-3.537-2.506-7.868-3.59-12.15-3.605-3.643.01-7.314.805-10.483 2.691l-7.537 4.53c-1.157.696-2.52 1.05-3.936 1.053-2.531.009-5.064-1.173-6.477-3.095l-1.66-2.236-.006-.006a6.482 6.482 0 01-1.301-3.88 6.495 6.495 0 012.782-5.322l22.302-15.67c1.929-1.396 5.36-2.375 8.618-2.35 2.264-.011 4.426.444 5.907 1.175l18.157 8.795c3.096 1.487 6.589 2.095 10.104 2.103 4.516-.022 9.081-1.004 12.842-3.314l18.548-11.538c1.183-.739 2.604-1.12 4.086-1.12 2.503-.006 5.012 1.128 6.433 2.98l19.016 24.332c1.096 1.393 1.731 3.36 1.731 5.397.004 2.279-.801 4.52-2.143 5.985z" fill="#FFDF5E"/></symbol><symbol fill="currentColor" viewBox="0 0 41 40" id="icon-info" xmlns="http://www.w3.org/2000/svg"><path d="M20.4 14.494a1.19 1.19 0 110-2.381 1.19 1.19 0 010 2.381z"/><path d="M20.4 36.25a16.25 16.25 0 110-32.5 16.25 16.25 0 010 32.5zm0-30a13.75 13.75 0 100 27.5 13.75 13.75 0 000-27.5z"/><path d="M20.4 27.887a1.19 1.19 0 01-1.19-1.19V17.41a1.19 1.19 0 012.38 0v9.286a1.19 1.19 0 01-1.19 1.19z"/></symbol><symbol fill="currentColor" viewBox="0 0 14 15" id="icon-lock" xmlns="http://www.w3.org/2000/svg"><path d="M11.375 6.875h-.438V4.687C10.938 2.527 9.16.75 7 .75a3.938 3.938 0 00-3.938 3.938v2.187h-.437c-.984 0-1.75.766-1.75 1.75V13c0 .957.766 1.75 1.75 1.75h8.75c.957 0 1.75-.793 1.75-1.75V8.625c0-.957-.793-1.75-1.75-1.75zM4.812 4.687C4.813 3.484 5.77 2.5 7 2.5c1.203 0 2.188.984 2.188 2.188v2.187H4.811V4.687z"/></symbol><symbol fill="none" viewBox="0 0 240 240" id="icon-megaphone-speaker" xmlns="http://www.w3.org/2000/svg"><path d="M100.872 217.303a6.255 6.255 0 004.424 1.836 6.248 6.248 0 004.424-1.836l5.232-5.172a6.26 6.26 0 001.836-4.426 6.257 6.257 0 00-1.836-4.426 6.098 6.098 0 00-4.456-1.836 5.98 5.98 0 00-4.4 1.836l-5.228 5.176a6.24 6.24 0 00-1.834 4.425 6.25 6.25 0 001.838 4.423zM109.844 199.414a6.255 6.255 0 00.002-8.85 6.261 6.261 0 00-8.85-.002l-9.124 9.128a6.192 6.192 0 00-1.836 4.4c.001 1.668.66 3.269 1.836 4.452a6.46 6.46 0 008.848 0l9.124-9.128z" stroke="#FFDF5E" stroke-width="4" stroke-linecap="round" stroke-linejoin="round"/><path d="M83.136 199.569a6.24 6.24 0 008.852 0l9.124-9.124a6.255 6.255 0 001.836-4.424 6.248 6.248 0 00-1.836-4.424 6.136 6.136 0 00-4.4-1.836 6.28 6.28 0 00-4.452 1.836l-9.124 9.124a6.244 6.244 0 00-1.359 6.819 6.255 6.255 0 001.359 2.029z" stroke="#FFDF5E" stroke-width="4" stroke-linecap="round" stroke-linejoin="round"/><path d="M76.448 186.861a2.992 2.992 0 001.68 3.2 6.491 6.491 0 007.004-1.248l5.164-5.212a5.972 5.972 0 001.828-4.4 6.106 6.106 0 00-1.844-4.448 6.46 6.46 0 00-8.848 0c-5.532 5.6-5.028 5.096-5.08 5.16M92.124 233.88l6.912-6.908" stroke="#FFDF5E" stroke-width="4" stroke-linecap="round" stroke-linejoin="round"/><path d="M67.368 196.083l8.364-8.364a6.028 6.028 0 10-8.532-8.52l-8.516 8.52a16.074 16.074 0 00-4.308 14.96c.648 2.86 10.42 21.544 5.716 26.248l-4.064 5.072M77.64 113.668a39.512 39.512 0 01-8.84 7.672M7.756 171.724L20.4 162.52M13.092 180.757l13.876-10.12M19.684 188.772l12.348-8.6M40.06 128.575l30.8 45.22" stroke="#FFDF5E" stroke-width="4" stroke-linecap="round" stroke-linejoin="round"/><path d="M115.376 55.598a7.378 7.378 0 00-9.845-2.188 7.378 7.378 0 00-2.591 2.588c-16 26.8-32.4 52.348-80.772 85.648l-6.096 4.148a22.144 22.144 0 00-5.824 30.764l5.06 7.464a22.145 22.145 0 0030.768 5.816l6.096-4.156c48.668-32.868 78.452-38.8 109.232-43.908a7.37 7.37 0 005.584-4.375 7.38 7.38 0 00-.688-7.061l-50.924-74.74z" stroke="#FFDF5E" stroke-width="4" stroke-linecap="round" stroke-linejoin="round"/><path d="M134.152 83.148l3.048-2.076a11.063 11.063 0 018.301-1.725A11.07 11.07 0 01152.588 84l.896 1.36a11.071 11.071 0 01-2.912 15.384l-3.048 2.076M80.288 175.908c-.368-.516-3.72-5.412-3.72-5.412M68.436 195.016c9.828 13.032 24.308 29.044 35.528 35.004.348.183.741.261 1.132.224 8.8-.856 16-7.112 22.236-16.656a2 2 0 00-1.364-3.068 45.463 45.463 0 01-9.2-2.22M84.98 106.668s16.74-15.504 19.124-23.492" stroke="#FFDF5E" stroke-width="4" stroke-linecap="round" stroke-linejoin="round"/><path d="M165.956 86.377a2.066 2.066 0 00-.587 2.628 2.067 2.067 0 002.511.972l49.428-17.852a2.065 2.065 0 001.338-1.625 2.07 2.07 0 00-.778-1.956l-9.252-7.131a2.062 2.062 0 01-.804-1.563 2.07 2.07 0 01.688-1.617l24.4-21.772a2.07 2.07 0 00-.726-3.5 2.07 2.07 0 00-1.41.036l-56.604 22.44a2.066 2.066 0 00-1.109 2.78c.155.34.401.632.709.844l12.776 8.772c.272.186.496.435.653.725a2.074 2.074 0 01.031 1.896 2.067 2.067 0 01-.628.747l-20.636 15.176zM179.956 120.053a1.137 1.137 0 00-1.282.751 1.136 1.136 0 00.55 1.381l25.8 13.264a1.146 1.146 0 001.552-.527c.087-.185.123-.39.104-.593l-.596-6.424a1.13 1.13 0 01.327-.913c.119-.118.262-.209.42-.266.158-.057.326-.078.493-.061l17.976 1.676a1.143 1.143 0 001.204-.833 1.14 1.14 0 00-.608-1.331l-30.352-14.436a1.132 1.132 0 00-1.158.122 1.138 1.138 0 00-.442 1.078l1.26 8.46a1.135 1.135 0 01-.338.99 1.14 1.14 0 01-1.002.302l-13.908-2.64zM138.968 52.67a1.137 1.137 0 00.764 1.286 1.14 1.14 0 001.38-.578l12.98-25.94a1.143 1.143 0 00-1.14-1.648l-6.4.668a1.143 1.143 0 01-1.256-1.228l1.48-18a1.141 1.141 0 00-2.172-.576L130.488 37.17a1.143 1.143 0 001.2 1.6l8.448-1.352a1.136 1.136 0 011.3 1.324l-2.468 13.928z" fill="#826FFF"/></symbol><symbol fill="none" viewBox="0 0 25 24" id="icon-monitor" xmlns="http://www.w3.org/2000/svg"><path fill-rule="evenodd" clip-rule="evenodd" d="M12.018 18.25h-4.25a4.75 4.75 0 01-4.75-4.75V8a4.75 4.75 0 014.75-4.75h10A4.75 4.75 0 0122.518 8v5.5a4.75 4.75 0 01-4.75 4.75h-4.25v1h2.75l.114.009.144.037.13.063.116.086.097.106.075.124.05.138.02.11.003.116-.014.112-.044.141-.07.127-.091.111-.111.092-.127.069-.141.044-.112.014-.04.001h-7a.75.75 0 010-1.5h2.75v-1zm9-10.25v5.5a3.247 3.247 0 01-3.25 3.25h-10a3.247 3.247 0 01-3.25-3.25V8a3.247 3.247 0 013.25-3.25h10A3.247 3.247 0 0121.018 8z" fill="#fff"/></symbol><symbol fill="none" viewBox="0 0 102 96" id="icon-no-image" xmlns="http://www.w3.org/2000/svg"><path fill-rule="evenodd" clip-rule="evenodd" d="M81.3.066h20.248v20.247H81.3V.066zm14.335 26.272v62.707H6.365V20.313h68.443v-6.008H.375v80.747h101.25V26.338h-5.99zm-56.17 16.834h23.07v23.069h-23.07V43.172zm-6-6h35.07v35.069h-35.07V37.172z" fill="#fff"/></symbol><symbol fill="none" viewBox="0 0 24 24" id="icon-notification" xmlns="http://www.w3.org/2000/svg"><path fill-rule="evenodd" clip-rule="evenodd" d="M5.25 9.5v2.798a1.75 1.75 0 01-.657 1.367l-.914.731a2.477 2.477 0 00-.93 1.934 2.924 2.924 0 002.92 2.92h12.66c.774 0 1.517-.308 2.066-.855a2.924 2.924 0 00.855-2.065c0-.753-.343-1.464-.93-1.934l-.913-.73a1.75 1.75 0 01-.657-1.368V9.5a6.75 6.75 0 10-13.5 0zm1.5 0a5.25 5.25 0 1110.5 0v2.798c0 .988.448 1.922 1.22 2.538.303.244.635.51.914.731a.98.98 0 01.366.763 1.42 1.42 0 01-1.42 1.42H5.67a1.42 1.42 0 01-1.42-1.42.98.98 0 01.366-.763l.914-.73a3.248 3.248 0 001.22-2.539V9.5zM13.124 19.95a2.233 2.233 0 01-1.124.3c-.41 0-.793-.109-1.124-.3a.751.751 0 00-.752 1.297A3.73 3.73 0 0012 21.75a3.73 3.73 0 001.876-.503.75.75 0 00-.752-1.298z" fill="#B2B7BE"/></symbol><symbol fill="none" viewBox="0 0 24 24" id="icon-redo" xmlns="http://www.w3.org/2000/svg"><path fill-rule="evenodd" clip-rule="evenodd" d="M18.627 8.75a7.337 7.337 0 00-6.55-4C8.034 4.75 4.75 7.997 4.75 12s3.285 7.25 7.326 7.25c3.577 0 6.561-2.543 7.2-5.904a.75.75 0 011.474.28c-.77 4.052-4.361 7.124-8.674 7.124-4.873 0-8.826-3.923-8.826-8.75s3.953-8.75 8.826-8.75a8.837 8.837 0 017.82 4.692l.392-1.18a.751.751 0 011.424.475l-1 3a.751.751 0 01-.948.475l-3-1a.751.751 0 01.474-1.424l1.389.463z" fill="#B2B7BE"/></symbol><symbol fill="none" viewBox="0 0 24 24" id="icon-rocket" xmlns="http://www.w3.org/2000/svg"><path fill-rule="evenodd" clip-rule="evenodd" d="M7.735 7.797a12.009 12.009 0 0112.251-4.568h.002c.391.087.696.392.783.783v.002a12.009 12.009 0 01-4.568 12.25l-1.271 4.239a1.75 1.75 0 01-1.676 1.247H10a1.749 1.749 0 01-1.737-1.536 2.75 2.75 0 01-2.784-.674L4.46 18.52a2.75 2.75 0 01-.674-2.783A1.749 1.749 0 012.25 14v-3.256a1.75 1.75 0 011.247-1.676l4.238-1.271zm6.555 9.627a6.087 6.087 0 01-.164.078L9.75 19.544V20a.25.25 0 00.25.25h3.256c.11 0 .208-.072.239-.178l.795-2.648zm5.078-12.792a10.51 10.51 0 00-11.511 5.876l-2.585 5.54a1.25 1.25 0 00.249 1.412l1.019 1.019a1.25 1.25 0 001.412.249l5.54-2.585a10.51 10.51 0 005.876-11.511zM6.576 9.71l-2.648.795a.249.249 0 00-.178.239V14a.25.25 0 00.25.25h.456l2.042-4.376c.025-.055.051-.11.078-.164z" fill="#fff"/><path fill-rule="evenodd" clip-rule="evenodd" d="M14.5 7.249a2.25 2.25 0 10.001 4.502 2.25 2.25 0 00-.002-4.502zm0 1.5a.75.75 0 11-.001 1.5.75.75 0 010-1.5z" fill="#fff"/></symbol><symbol fill="none" viewBox="0 0 16 16" id="icon-search" xmlns="http://www.w3.org/2000/svg"><path fill="#B2B7BE" fill-rule="evenodd" d="M5.946 10.062a4.116 4.116 0 110-8.233 4.117 4.117 0 010 8.233zm5.49 0h-.725l-.253-.25a5.918 5.918 0 001.434-3.866 5.946 5.946 0 10-5.946 5.946 5.92 5.92 0 003.865-1.433l.253.251v.724L14.636 16 16 14.636l-4.563-4.574z" clip-rule="evenodd"/></symbol><symbol fill="none" viewBox="0 0 16 16" id="icon-search-2" xmlns="http://www.w3.org/2000/svg"><path fill-rule="evenodd" clip-rule="evenodd" d="M5.946 10.062a4.116 4.116 0 110-8.233 4.117 4.117 0 010 8.233zm5.49 0h-.725l-.253-.25a5.918 5.918 0 001.434-3.866 5.946 5.946 0 10-5.946 5.946 5.92 5.92 0 003.865-1.433l.253.251v.724L14.636 16 16 14.636l-4.563-4.574z" fill="#fff" fill-opacity=".5"/></symbol><symbol fill="none" viewBox="0 0 24 24" id="icon-ticket" xmlns="http://www.w3.org/2000/svg"><path fill-rule="evenodd" clip-rule="evenodd" d="M21.984 8.556c0 .789-.71 1.413-1.3 1.937a2.011 2.011 0 00-.67 1.507 2.011 2.011 0 00.67 1.507c.59.524 1.3 1.148 1.3 1.937V18c0 .531-.203 1-.609 1.406-.375.407-.828.61-1.36.61H3.986c-.532 0-1-.203-1.407-.61A2.012 2.012 0 012.016 18v-2.556c0-.789.721-1.38 1.312-1.903.032-.028.063-.057.094-.088.375-.406.562-.89.562-1.453 0-.531-.203-1-.609-1.406a2.125 2.125 0 00-.075-.077c-.562-.554-1.284-1.172-1.284-1.961V6c0-.563.187-1.031.562-1.406.406-.407.875-.61 1.406-.61h16.032c.53 0 .984.204 1.359.61.406.375.61.843.61 1.406v2.556zm-2.416 5.86c.527.528.988 1.182.988 1.928V18c0 .12-.029.234-.191.396l-.02.02-.02.021c-.117.127-.195.15-.31.15H3.986c-.115 0-.224-.026-.376-.17A.578.578 0 013.444 18v-1.642c0-.736.468-1.375.988-1.895l.02-.02.02-.02A3.496 3.496 0 005.413 12c0-.933-.37-1.75-1.008-2.396-.506-.54-.96-1.189-.96-1.928V6c0-.21.054-.307.143-.396.163-.163.277-.191.396-.191h16.032c.114 0 .192.023.31.15l.038.042.042.038c.108.1.15.185.15.357v1.656c0 .746-.46 1.4-.988 1.928l-.02.02-.02.02a3.439 3.439 0 00-.94 2.376c0 .906.333 1.717.94 2.375l.02.021.02.02zM16.022 8a1 1 0 10-2 0 1 1 0 002 0zm-2 4a1 1 0 112 0 1 1 0 01-2 0zm2 4a1 1 0 10-2 0 1 1 0 002 0z" fill="currentColor"/></symbol><symbol fill="currentColor" viewBox="0 0 16 18" id="icon-user-partner" xmlns="http://www.w3.org/2000/svg"><path d="M8 .875a3.96 3.96 0 00-3.958 3.958 3.96 3.96 0 003.959 3.959 3.96 3.96 0 003.958-3.959A3.96 3.96 0 008.001.875zm0 1.25a2.71 2.71 0 010 5.417 2.71 2.71 0 010-5.417zM.709 12.73v.872c0 .996.586 1.898 1.496 2.302 1.81.805 3.77 1.22 5.751 1.22h.089c1.981 0 3.94-.415 5.75-1.22h.001a2.518 2.518 0 001.496-2.302v-.871c0-.996-.586-1.898-1.496-2.302a14.151 14.151 0 00-5.751-1.22h-.089c-1.981 0-3.94.415-5.75 1.22h-.001a2.518 2.518 0 00-1.496 2.302zm1.25 0c0-.501.295-.955.753-1.159a12.913 12.913 0 015.244-1.113h.089c1.806 0 3.592.38 5.243 1.113.46.204.754.658.754 1.16v.871c0 .502-.295.956-.753 1.16h-.001a12.913 12.913 0 01-5.243 1.113h-.089c-1.806 0-3.592-.38-5.243-1.113a1.267 1.267 0 01-.754-1.16v-.871z"/><path d="M7.154 14.23l.308-3.657a.476.476 0 01.475-.437h.116c.246 0 .452.188.474.434l.33 3.651a.476.476 0 01-.129.37l-.39.414a.476.476 0 01-.702-.01l-.363-.407a.476.476 0 01-.12-.357z"/></symbol><symbol fill="currentColor" viewBox="0 0 17 18" id="icon-user-plus" xmlns="http://www.w3.org/2000/svg"><path d="M8 .875a3.96 3.96 0 00-3.958 3.958 3.96 3.96 0 003.959 3.959 3.96 3.96 0 003.958-3.959A3.96 3.96 0 008.001.875zm0 1.25a2.71 2.71 0 010 5.417 2.71 2.71 0 010-5.417zM.709 12.73v.872c0 .996.586 1.898 1.496 2.302 1.81.805 3.77 1.22 5.751 1.22h.089c1.981 0 3.94-.415 5.75-1.22h.001a2.518 2.518 0 001.496-2.302v-.871c0-.996-.586-1.898-1.496-2.302a14.151 14.151 0 00-5.751-1.22h-.089c-1.981 0-3.94.415-5.75 1.22h-.001a2.518 2.518 0 00-1.496 2.302zm1.25 0c0-.501.295-.955.753-1.159a12.913 12.913 0 015.244-1.113h.089c1.806 0 3.592.38 5.243 1.113.46.204.754.658.754 1.16v.871c0 .502-.295.956-.753 1.16h-.001a12.913 12.913 0 01-5.243 1.113h-.089c-1.806 0-3.592-.38-5.243-1.113a1.267 1.267 0 01-.754-1.16v-.871zM13.625 6.708v-.625a.625.625 0 011.25 0v.625h.625a.625.625 0 010 1.25h-.625v.625a.625.625 0 01-1.25 0v-.625H13a.625.625 0 010-1.25h.625z"/></symbol><symbol fill="currentColor" viewBox="0 0 21 18" id="icon-user-residents" xmlns="http://www.w3.org/2000/svg"><path d="M7.738.758a4.202 4.202 0 00-4.2 4.2c0 2.318 1.881 4.2 4.2 4.2 2.318 0 4.2-1.882 4.2-4.2 0-2.319-1.882-4.2-4.2-4.2zm0 1.326a2.875 2.875 0 010 5.748 2.875 2.875 0 010-5.748zM13.13 3.283a1.99 1.99 0 010 2.813.664.664 0 00.937.938 3.317 3.317 0 000-4.69.663.663 0 00-.938.939z"/><path d="M15.005 1.407a4.644 4.644 0 010 6.565.663.663 0 00.938.938 5.972 5.972 0 000-8.441.663.663 0 00-.938.938zM0 13.337v.925c0 1.057.622 2.014 1.587 2.442h.001c1.92.855 4 1.296 6.102 1.296h.094c2.103 0 4.182-.441 6.102-1.296h.001a2.671 2.671 0 001.587-2.442v-.925a2.671 2.671 0 00-1.587-2.442c-1.921-.854-4-1.295-6.103-1.295H7.69c-2.102 0-4.181.44-6.102 1.295A2.671 2.671 0 000 13.337zm1.326 0c0-.532.313-1.014.8-1.23a13.704 13.704 0 015.564-1.181h.094c1.917 0 3.812.402 5.564 1.18v.001c.487.216.8.698.8 1.23v.925c0 .532-.313 1.014-.8 1.23v.001a13.704 13.704 0 01-5.564 1.18H7.69c-1.917 0-3.812-.402-5.563-1.18h-.001a1.345 1.345 0 01-.8-1.23v-.926z"/></symbol><symbol fill="none" viewBox="0 0 32 32" id="instagram" xmlns="http://www.w3.org/2000/svg"><path fill="currentColor" fill-rule="evenodd" d="M1.229 16C1.229 7.842 7.842 1.229 16 1.229c8.158 0 14.771 6.613 14.771 14.771 0 8.158-6.613 14.771-14.771 14.771-8.158 0-14.771-6.613-14.771-14.771zm23.398.964c.002-.376.004-.752.004-1.127V11.96c0-1.022-.298-1.95-.915-2.759-1.107-1.446-2.607-2.134-4.406-2.148-1.654-.015-3.31-.013-4.967-.01l-1.986.003c-.883.003-1.73.177-2.511.585-1.795.943-2.806 2.393-2.806 4.467v7.622c0 .961.266 1.847.823 2.627 1.06 1.482 2.54 2.234 4.338 2.27 1.751.033 3.504.025 5.256.017.637-.003 1.274-.006 1.91-.007.763 0 1.5-.16 2.203-.46 1.749-.753 3.122-2.44 3.069-4.624a80.26 80.26 0 01-.012-2.578zM8.349 19.737v-3.9c0-.367.003-.734.006-1.1.006-.857.013-1.714-.017-2.573-.056-1.812 1.157-3.042 2.462-3.528a4.19 4.19 0 011.472-.28c.56 0 1.119-.002 1.678-.004 1.818-.005 3.635-.01 5.453.011 1.348.015 2.476.557 3.292 1.66.422.574.624 1.226.624 1.939l-.002 2.265c-.002 1.762-.005 3.524.005 5.287.008 1.645-.798 2.74-2.238 3.428a3.88 3.88 0 01-1.681.372l-1.431.006c-1.907.008-3.813.015-5.717-.013-1.483-.025-2.679-.656-3.47-1.95a3.046 3.046 0 01-.436-1.62zm3.384-4.302a4.11 4.11 0 004.11 4.12 4.112 4.112 0 004.104-4.11 4.108 4.108 0 00-8.214-.01zm6.91.003a2.795 2.795 0 01-2.8 2.796 2.8 2.8 0 01-2.809-2.789c0-1.539 1.262-2.785 2.81-2.785 1.54 0 2.795 1.25 2.798 2.778zm1.888-5.27c.54 0 .98.442.98.982a.977.977 0 11-.98-.982z" clip-rule="evenodd"/></symbol><symbol fill="none" viewBox="0 0 286 300" id="logo" xmlns="http://www.w3.org/2000/svg"><path fill-rule="evenodd" clip-rule="evenodd" d="M277.572 276.867h-5.18c-2.326 0-3.489-1.002-3.489-3.01 0-1.203.216-2.02.66-2.457.431-.437 1.211-.654 2.338-.654h5.671v6.121zm-97.33-88.55c3.577 0 6.474 2.906 6.474 6.493 0 3.588-2.897 6.494-6.474 6.494-3.577 0-6.475-2.906-6.475-6.494 0-3.587 2.898-6.493 6.475-6.493zm-71.712-2.89c3.577 0 6.474 2.91 6.474 6.497 0 3.584-2.897 6.494-6.474 6.494-3.577 0-6.475-2.91-6.475-6.494 0-3.587 2.898-6.497 6.475-6.497zm32.62-12.747c.488 0 .963.056 1.423.156v-5.724h11.115l-3.166-10.779 27.477-11.484-1.414-3.956-27.25 11.392-4.524-15.401-5.475 2.293-5.528 19.597-37.02 15.473 7.249-20.291-26.673 11.168V84.422H207.93v26.039l-36.725 15.372 27.849 77.948h-35.071l-4.172-14.218h-17.238v-4.052c-.46.104-.935.156-1.423.156-3.577 0-6.478-2.906-6.478-6.494 0-3.587 2.901-6.493 6.478-6.493zm1.423.156a6.498 6.498 0 015.052 6.337 6.496 6.496 0 01-5.052 6.338v4.052H124.74l-4.033 14.218h-34.47l8.644-24.191 37.473-15.661-.9 3.183h11.119v5.724zm27.113-11.22c3.577 0 6.479 2.907 6.479 6.494 0 3.584-2.902 6.494-6.479 6.494s-6.474-2.91-6.474-6.494c0-3.587 2.897-6.494 6.474-6.494zm-65.637-7.692l20.691-57.906h35.814l2.726 7.628h-41.266l-2.062 5.773h45.39l1.719 4.81h-48.827l-1.807 5.05h52.436l1.419 3.969h-55.274l-1.199 3.367h55.502l1.89-.79-26.394 11.043-2.458-8.369-3.009 10.658-35.291 14.767zm-31.218 65.999h139.632V79.876H72.832v140.047zM240.124 51.32c-.483-.469-1.043-.701-1.686-.701h-20.815l12.382-9.412c2.006-1.475 3.693-2.95 5.076-4.425 1.382-1.476 2.514-2.97 3.357-4.482.859-1.495 1.471-3.042 1.81-4.642.36-1.603.54-5.13.54-6.838a20.71 20.71 0 00-1.543-7.845 19.272 19.272 0 00-4.56-6.642c-2.006-1.924-4.484-3.45-7.462-4.605C224.245.578 219.129 0 215.236 0c-4.108 0-7.697.613-10.731 1.852-3.029 1.243-5.559 2.862-7.605 4.878-2.027 2.016-3.533 4.23-4.541 6.694-1.003 2.445-1.538 3.74-1.594 6.225 0 .521.196.986.575 1.367.376.397.84.574 1.363.574h10.871c.827 0 1.543-.125 2.174-.393.608-.273 1.363-1.64 1.363-1.64s1.251-1.924 1.811-2.641c.091-.109.159-.2.271-.305l.016-.02c.056-.072.104-.124.18-.197.628-.757 1.507-1.422 2.602-2.032 1.203-.65 2.762-.974 4.696-.974 1.922 0 3.449.305 4.58.934 1.143.597 2.007 1.351 2.634 2.213.631.866 1.007 1.727 1.203 2.593.16.866.252 1.532.252 2.017 0 1.383-.324 2.806-.915 4.28-.34.81-.952 1.66-1.811 2.574a.477.477 0 00-.144.144 20.327 20.327 0 01-2.73 2.43L193.331 49.54c-.952.666-1.615 1.455-1.991 2.393-.379.954-.575 1.908-.575 2.842v7.629c0 .649.232 1.206.719 1.675a2.216 2.216 0 001.667.718h45.286c.643 0 1.203-.233 1.686-.718.468-.469.7-1.026.7-1.675v-9.392c0-.666-.232-1.223-.7-1.692zM223.27 81.323v150.614H58.86V66.853h114.387v-14.43H44.471v193.94h193.186V81.323H223.27zm54.302 212.015h7.678v-28.865h-14.736c-2.266 0-4.073.329-5.432.974-1.362.658-2.342 1.648-2.949 2.982-.608 1.343-.903 3.063-.903 5.167 0 1.556.168 2.886.515 3.981.34 1.094.884 2.008 1.631 2.762.739.741 1.738 1.378 2.993 1.908l-6.254 11.091h8.788l5.064-10.161h3.605v10.161zm-46.701-28.865h7.294v19.008h.268l8.98-19.008h10.092v28.865h-7.29v-19.004h-.264l-8.641 19.004h-10.439v-28.865zm-23.1 22.171h10.015v-22.171h7.678v22.171h2.378v13.272h-7.29v-6.578h-20.455v-28.865h7.674v22.171zm-12.55-22.171v28.865h-7.678v-11.316h-10.015v11.316h-7.674v-28.865h7.674v10.855h10.015v-10.855h7.678zm-43.711 6.313v5.272h12.281v5.351H151.51v5.62h13.352v6.309h-21.026v-28.865h20.759v6.313H151.51zm-28.165.309l.036 3.956c0 1.864-.08 3.496-.256 4.883-.163 1.383-.419 2.617-.771 3.691a16.612 16.612 0 01-1.351 3.095h9.556v-15.625h-7.214zm-10.087 15.625a13.103 13.103 0 001.63-2.998c.416-1.071.72-2.341.916-3.808.191-1.463.287-3.239.287-5.32v-10.121h22.182v22.247h2.378V300h-7.29v-6.662h-15.12V300h-7.253v-13.28h2.27zm-32.277-22.247h7.29v19.008h.267l8.98-19.008h10.092v28.865h-7.289v-19.004h-.264l-8.641 19.004H80.981v-28.865zm-14.82 16.896H62.09v-5.348h3.653c.847 0 1.506-.072 1.974-.22.467-.14.803-.409 1.03-.81.225-.389.333-.974.333-1.743 0-.962-.296-1.66-.884-2.089-.595-.433-1.802-.641-3.644-.641-1.076 0-1.927.076-2.534.236-.608.161-1.056.453-1.335.878-.288.429-.432 1.038-.432 1.84h-7.374v-1.19c0-2.073.456-3.704 1.351-4.887.903-1.182 2.206-2.012 3.92-2.477 1.707-.477 3.882-.713 6.515-.713 2.646 0 4.852.224 6.61.677 1.763.457 3.114 1.247 4.061 2.369.948 1.122 1.42 2.662 1.42 4.614 0 2.024-.308 3.571-.928 4.629-.62 1.067-1.815 1.74-3.601 2.025v.312c1.798.165 3.078.754 3.837 1.768.767 1.022 1.15 2.457 1.15 4.309 0 1.78-.163 3.203-.499 4.281-.335 1.07-.939 1.932-1.806 2.574-.872.641-2.11 1.102-3.725 1.383-1.61.284-3.76.424-6.439.424-2.206 0-4.036-.128-5.5-.38-1.458-.257-2.693-.718-3.684-1.383-1-.674-1.75-1.644-2.258-2.926-.504-1.275-.755-2.919-.755-4.927h7.361c0 .986.14 1.712.424 2.181.28.469.747.769 1.407.91.651.14 1.654.212 3.005.212 1.251 0 2.21-.076 2.886-.228.663-.157 1.143-.437 1.439-.854.287-.417.431-1.026.431-1.836 0-1.066-.248-1.828-.747-2.285-.492-.453-1.355-.685-2.59-.685zm-30.93-10.583v5.272h12.282v5.351H35.23v5.62h13.357v6.309h-21.03v-28.865h20.758v6.313H35.231zm-27.513 8.466h5.26c1.039 0 1.79-.096 2.25-.28.46-.189.775-.565.947-1.135.172-.565.256-1.495.256-2.786 0-1.042-.084-1.827-.256-2.373-.168-.541-.496-.93-.98-1.162-.495-.228-1.226-.345-2.217-.345h-5.26v8.081zm0 14.086H.044v-28.865h14.468c1.81 0 3.33.201 4.576.605 1.247.397 2.255 1.011 3.022 1.844.767.834 1.327 1.924 1.687 3.267.36 1.347.54 2.962.54 4.862 0 2.117-.145 3.861-.433 5.227-.287 1.375-.783 2.47-1.49 3.291-.704.826-1.687 1.427-2.958 1.808-1.283.381-2.925.573-4.944.573H7.718v7.388z" fill="#fff"/></symbol><symbol fill="none" viewBox="0 0 180 40" id="logo-small" xmlns="http://www.w3.org/2000/svg"><path fill-rule="evenodd" clip-rule="evenodd" d="M24.487 25.48a.88.88 0 01.883.878.88.88 0 01-.883.879.88.88 0 01-.882-.879.88.88 0 01.882-.878zm-9.777-.392c.487 0 .882.394.882.88a.88.88 0 01-.882.878.88.88 0 01-.883-.878c0-.486.395-.88.883-.88zm4.447-1.724a.92.92 0 01.194.021v-.775h1.516l-.432-1.458 3.747-1.554-.193-.535-3.716 1.541-.616-2.083-.747.31-.754 2.652-5.047 2.093.988-2.745-3.637 1.51V11.422h17.803v3.523l-5.008 2.08 3.797 10.547H22.27l-.568-1.924h-2.35V25.1a.88.88 0 01-1.077-.857.88.88 0 01.882-.88zm.194.021a.88.88 0 01.69.857.88.88 0 01-.69.858v.548H16.92l-.55 1.924h-4.7l1.179-3.273 5.109-2.12-.123.431h1.516v.775zm3.697-1.518a.88.88 0 01.884.879.881.881 0 01-.884.878.88.88 0 01-.883-.878.88.88 0 01.883-.879zm-8.95-1.04l2.822-7.836h4.883l.372 1.033h-5.627l-.281.78h6.189l.234.651h-6.657l-.247.684h7.15l.193.537h-7.536l-.164.455h7.568l.258-.107-3.6 1.494-.334-1.132-.41 1.442-4.812 1.998zm-4.256 8.929h19.039V10.807H9.842v18.949zm22.81-22.812a.32.32 0 00-.23-.095h-2.838l1.688-1.274c.274-.2.504-.399.692-.598.189-.2.343-.402.458-.607.117-.202.2-.411.247-.628.049-.217.074-.694.074-.925 0-.368-.072-.72-.21-1.061a2.606 2.606 0 00-.623-.9 3.029 3.029 0 00-1.017-.622C30.487.078 29.789 0 29.259 0c-.56 0-1.05.083-1.463.25a3.17 3.17 0 00-1.037.66 2.719 2.719 0 00-.62.906c-.136.331-.21.506-.217.843 0 .07.027.133.079.185a.246.246 0 00.185.077h1.483c.113 0 .21-.017.296-.053.083-.037.186-.222.186-.222s.17-.26.247-.357c.012-.015.022-.027.037-.042l.002-.002a1.229 1.229 0 01.38-.302c.163-.088.376-.132.64-.132.262 0 .47.042.624.127.156.08.274.183.36.3a.937.937 0 01.163.35c.022.117.035.207.035.273 0 .187-.045.38-.125.58a1.224 1.224 0 01-.267.367c-.103.11-.23.224-.372.329l-3.603 2.566a.724.724 0 00-.271.324c-.052.129-.079.258-.079.384v1.032a.3.3 0 00.098.227.303.303 0 00.227.097h6.175a.314.314 0 00.23-.097.308.308 0 00.095-.227v-1.27a.31.31 0 00-.095-.23zm-2.298 4.06V31.38H7.937V9.045h15.597V7.093H5.975v26.24h26.34v-22.33h-1.96zM168.704 19.922h-2.421c-1.087 0-1.631-.47-1.631-1.408 0-.563.101-.945.308-1.15.202-.204.566-.305 1.093-.305h2.651v2.863zm0 7.702h3.588V14.126h-6.887c-1.059 0-1.903.153-2.538.455a2.795 2.795 0 00-1.379 1.395c-.284.628-.422 1.432-.422 2.416 0 .727.078 1.35.241 1.861.159.512.413.94.762 1.292.345.347.812.645 1.399.892l-2.923 5.187h4.107l2.367-4.752h1.685v4.752zm-21.826-13.498h3.409v8.888h.125l4.197-8.888h4.716v13.498h-3.407v-8.887h-.123l-4.038 8.887h-4.879V14.126zm-10.796 10.367h4.68V14.126h3.589v10.367h1.111V30.7h-3.407v-3.076h-9.56V14.126h3.587v10.367zm-5.866-10.367v13.498h-3.588v-5.292h-4.68v5.292h-3.587V14.126h3.587v5.076h4.68v-5.076h3.588zm-20.428 2.952v2.465h5.74v2.502h-5.74v2.628h6.24v2.95h-9.826V14.127h9.701v2.952h-6.115zm-13.163.144l.017 1.85c0 .872-.037 1.635-.12 2.284a8.97 8.97 0 01-.36 1.726 7.789 7.789 0 01-.632 1.447h4.466v-7.307h-3.37zm-4.714 7.307c.313-.433.567-.898.762-1.402.194-.5.336-1.095.427-1.78.09-.685.135-1.516.135-2.488v-4.733H103.6v10.403h1.112v6.21h-3.407v-3.115H94.24v3.115h-3.39v-6.21h1.06zM76.826 14.126h3.407v8.888h.125l4.197-8.888h4.716v13.498h-3.407v-8.887h-.123l-4.038 8.887h-4.877V14.126zm-6.926 7.9h-1.904v-2.5h1.708c.396 0 .704-.034.922-.103a.79.79 0 00.482-.379c.105-.182.155-.455.155-.815 0-.45-.138-.776-.412-.977-.279-.202-.843-.3-1.704-.3-.502 0-.9.036-1.184.11-.284.076-.493.213-.624.411-.135.201-.202.486-.202.86h-3.446v-.556c0-.969.213-1.732.632-2.285.422-.553 1.03-.94 1.832-1.158.797-.223 1.814-.334 3.044-.334 1.237 0 2.268.105 3.09.317.824.213 1.455.583 1.898 1.108.442.524.663 1.244.663 2.157 0 .947-.144 1.67-.434 2.165-.29.499-.848.814-1.683.947v.146c.84.077 1.439.352 1.793.827.36.478.538 1.149.538 2.015 0 .832-.076 1.497-.233 2.002-.157.5-.439.903-.844 1.203-.407.3-.986.515-1.741.647-.753.133-1.758.198-3.01.198-1.03 0-1.886-.06-2.57-.178-.681-.12-1.258-.335-1.722-.646-.466-.315-.818-.769-1.055-1.369-.235-.596-.353-1.364-.353-2.303h3.44c0 .46.066.8.199 1.02.13.219.349.36.657.425.305.065.773.1 1.405.1.584 0 1.033-.037 1.348-.108.31-.073.535-.204.673-.399.134-.195.202-.48.202-.858 0-.5-.116-.855-.35-1.069-.23-.212-.633-.32-1.21-.32zm-14.455-4.948v2.465h5.74v2.502h-5.74v2.628h6.242v2.95h-9.829V14.127h9.702v2.952h-6.115zm-12.859 3.959h2.458c.486 0 .837-.045 1.052-.131.215-.088.362-.265.443-.53.08-.265.12-.7.12-1.304 0-.487-.04-.854-.12-1.11a.856.856 0 00-.458-.543c-.232-.107-.573-.161-1.037-.161h-2.458v3.779zm0 6.587H39V14.126h6.762c.846 0 1.556.093 2.138.283.583.185 1.054.472 1.412.862.359.39.62.9.789 1.528.168.63.252 1.385.252 2.273 0 .99-.067 1.806-.202 2.445-.134.643-.366 1.154-.697 1.539-.328.386-.788.667-1.382.845-.6.178-1.367.268-2.31.268h-3.176v3.455z" fill="#fff"/></symbol><symbol fill="none" viewBox="0 0 200 112" id="rating-position-1" xmlns="http://www.w3.org/2000/svg"><g clip-path="url(#bkclip0)"><path d="M189.589 78.072l-.342.489.342.488 9.121 12.999c.52.74.584 1.709.167 2.511h0a2.426 2.426 0 01-2.152 1.307h-25.007v6.454a2.425 2.425 0 01-2.425 2.425H30.708a2.425 2.425 0 01-2.425-2.425v-6.454H3.274a2.425 2.425 0 01-2.151-1.306h0a2.424 2.424 0 01.166-2.512h0l9.121-13 .343-.487-.343-.489-9.12-12.999s0 0 0 0a2.424 2.424 0 01-.167-2.511h0a2.426 2.426 0 012.151-1.307h27.433a2.425 2.425 0 012.425 2.425v6.02H166.868v-6.02a2.425 2.425 0 012.425-2.425h27.432c.905 0 1.735.504 2.152 1.306h0a2.425 2.425 0 01-.167 2.512h0l-9.121 13zM8.879 89.677l-.94 1.339h20.344V66.105H7.938l.94 1.339 6.823 9.724s0 0 0 0c.586.835.586 1.95 0 2.786l-6.823 9.723zm157.139 10.217h.85V74.55H33.133v25.344h132.885zm5.7-9.728v.85H192.06l-.938-1.339-6.823-9.724a2.426 2.426 0 010-2.786l6.823-9.723.939-1.338H171.718V90.165z" fill="#FFDF5E" stroke="#fff" stroke-width="1.7"/></g><path d="M131.629 13.822V8.554c-.166-1.815-1.305-3.022-2.935-3.198h-9.86V3.022c0-1.639-1.305-3.022-2.852-3.022H81.769c-1.546 0-2.851 1.383-2.851 3.022v2.334H69.955c-1.63.088-2.769 1.383-2.935 3.198v5.268c-.083 1.383-.49 14.765 13.037 17.012 2.12 6.3 7.008 11.312 13.202 13.206v8.546l-10.758 5.436s-.083 0-.083.088c-1.546.952-2.361 2.335-2.361 3.886v1.814c.166 1.727 1.305 2.846 3.017 2.846h31.694c1.712 0 2.934-1.119 3.017-2.846V61.995c0-1.55-.815-2.933-2.361-3.885l-.083-.088-10.592-5.356V43.96c5.945-1.902 10.758-6.819 12.953-13.038 4.564-.608 8.065-2.415 10.509-5.436 3.75-4.757 3.418-10.8 3.418-11.664zM79.242 27.468c-10.019-2.502-9.287-12.863-9.204-13.382V8.73v-.176h8.88V23.75c0 .608 0 1.12.083 1.727v.176c.075.607.158 1.119.241 1.814 0-.088 0-.088 0 0zm35.526 34.447v1.471H82.991v-1.47c0-.432.49-.864.815-1.04l11.083-5.524h7.981l11.083 5.524c.324.176.815.608.815 1.04zm-13.12-17.011v7.25h-5.379v-7.25h5.379zm-2.769-3.19c-7.657 0-14.092-5.356-16.212-12.695-.083-.432-.241-.863-.324-1.295-.166-.775-.242-1.639-.325-2.414v-.256c0-.432-.083-.775-.083-1.207V3.206h33.813V23.67c0 .432 0 .775-.083 1.207v.256c0 .344-.083.775-.083 1.12v.087c-.083.432-.166.776-.241 1.207 0 .088 0 .176-.083.256-.083.344-.166.688-.242 1.04-2.044 7.426-8.562 12.87-16.137 12.87zm26.971-18.219c-1.712 2.159-4.157 3.542-7.333 4.141v-.088c.083-.607.166-1.12.241-1.727v-.176c.083-.607.083-1.207.083-1.814V8.56h9.778V14.095c0 .08.407 5.34-2.769 9.401zM95.779 34.2c-.242.608-.815 1.04-1.388 1.04-.166 0-.325 0-.574-.088-4.971-1.983-6.027-6.732-5.944-8.89V10.033c0-.864.648-1.551 1.463-1.551.815 0 1.464.687 1.464 1.55V26.35c0 .256-.166 4.229 3.99 5.868.913.256 1.32 1.207.989 1.982z" fill="#FFDF5E"/><path d="M70.124 93h-2.127V82.726l-3.138 1.072v-1.802l4.993-1.837h.272V93zm14.713-2.628l2.812-6.882h2.672V93h-2.135v-6.293L85.566 93h-1.45l-2.628-6.328V93h-2.135v-9.51h2.689l2.795 6.882zm12.076 2.804c-1.353 0-2.452-.425-3.296-1.275-.838-.855-1.257-1.992-1.257-3.41v-.263c0-.95.182-1.796.545-2.54.37-.75.885-1.334 1.547-1.75a4.078 4.078 0 012.215-.624c1.295 0 2.294.414 2.997 1.24.709.826 1.064 1.995 1.064 3.507v.86h-6.214c.064.786.325 1.407.782 1.864.463.457 1.043.686 1.74.686.979 0 1.775-.396 2.39-1.187l1.152 1.099a3.871 3.871 0 01-1.53 1.327c-.632.31-1.344.466-2.135.466zm-.255-8.148c-.586 0-1.06.205-1.424.616-.357.41-.586.981-.685 1.713h4.07V87.2c-.048-.715-.238-1.254-.572-1.617-.334-.37-.797-.554-1.389-.554zm9.642 6.443c.533 0 .975-.156 1.327-.466.352-.31.539-.694.562-1.151h2.013a3.154 3.154 0 01-.554 1.66c-.345.51-.814.915-1.406 1.214a4.189 4.189 0 01-1.916.448c-1.33 0-2.385-.43-3.164-1.292-.779-.862-1.169-2.051-1.169-3.569v-.22c0-1.447.387-2.604 1.16-3.471.774-.873 1.828-1.31 3.164-1.31 1.131 0 2.051.332 2.76.994.715.656 1.09 1.52 1.125 2.592h-2.013c-.023-.544-.21-.993-.562-1.344-.346-.352-.788-.528-1.327-.528-.692 0-1.225.252-1.6.756-.375.498-.565 1.257-.571 2.276v.343c0 1.032.184 1.802.554 2.312.375.504.914.756 1.617.756zm12.999-6.285h-3.085V93h-2.136v-7.814h-3.05V83.49h8.271v1.697zm.764 2.971c0-.931.185-1.77.554-2.513.369-.75.888-1.325 1.556-1.723.668-.404 1.435-.607 2.303-.607 1.283 0 2.323.414 3.12 1.24.802.826 1.236 1.922 1.3 3.287l.009.5c0 .938-.181 1.776-.545 2.515a3.956 3.956 0 01-1.547 1.713c-.667.405-1.441.607-2.32.607-1.342 0-2.417-.445-3.225-1.336-.803-.897-1.205-2.089-1.205-3.577v-.106zm2.136.185c0 .978.202 1.746.607 2.302.404.551.966.827 1.687.827.721 0 1.28-.282 1.679-.844.404-.563.606-1.386.606-2.47 0-.96-.208-1.722-.624-2.285-.41-.562-.969-.844-1.678-.844-.698 0-1.251.279-1.662.835-.41.551-.615 1.377-.615 2.479z" fill="#494949"/><defs><clipPath id="bkclip0"><path fill="#fff" transform="translate(0 60)" d="M0 0h200v46H0z"/></clipPath></defs></symbol><symbol fill="none" viewBox="0 0 200 112" id="rating-position-2" xmlns="http://www.w3.org/2000/svg"><g clip-path="url(#blclip0_718_1393)"><path d="M189.589 78.072l-.342.489.342.488 9.121 12.999c.52.741.584 1.709.167 2.512h0a2.426 2.426 0 01-2.152 1.306h-25.007v6.454a2.425 2.425 0 01-2.425 2.425H30.708a2.425 2.425 0 01-2.425-2.425v-6.454H3.274a2.425 2.425 0 01-2.151-1.306h0a2.424 2.424 0 01.166-2.512h0l9.121-13 .343-.487-.343-.489-9.12-12.999s0 0 0 0a2.424 2.424 0 01-.167-2.511h0a2.426 2.426 0 012.151-1.307h27.433a2.426 2.426 0 012.425 2.425v6.02H166.868v-6.02a2.425 2.425 0 012.425-2.425h27.432c.905 0 1.735.504 2.152 1.306h0a2.426 2.426 0 01-.167 2.512h0l-9.121 13zM8.879 89.677l-.94 1.339h20.344V66.105H7.938l.94 1.339 6.823 9.724s0 0 0 0c.586.835.586 1.95 0 2.786l-6.823 9.723zm157.139 10.217h.85V74.551H33.133V99.893h132.885zm5.7-9.728v.85H192.06l-.938-1.339-6.823-9.723a2.426 2.426 0 010-2.787l6.823-9.723.939-1.338H171.718V90.165z" fill="#209CFE" stroke="#fff" stroke-width="1.7"/></g><path d="M131.629 13.822V8.554c-.166-1.815-1.305-3.022-2.935-3.198h-9.86V3.022c0-1.639-1.305-3.022-2.852-3.022H81.769c-1.546 0-2.851 1.383-2.851 3.022v2.334H69.955c-1.63.088-2.769 1.383-2.935 3.198v5.268c-.083 1.383-.49 14.765 13.037 17.012 2.12 6.3 7.008 11.312 13.202 13.206v8.546l-10.758 5.436s-.083 0-.083.088c-1.546.952-2.361 2.335-2.361 3.886v1.814c.166 1.727 1.305 2.846 3.017 2.846h31.694c1.712 0 2.934-1.119 3.017-2.846V61.995c0-1.55-.815-2.933-2.361-3.885l-.083-.088-10.592-5.356V43.96c5.945-1.902 10.758-6.819 12.953-13.038 4.564-.608 8.065-2.415 10.509-5.436 3.75-4.757 3.418-10.8 3.418-11.664zM79.242 27.468c-10.019-2.502-9.287-12.863-9.204-13.382V8.73v-.176h8.88V23.75c0 .608 0 1.12.083 1.727v.176c.075.607.158 1.119.241 1.814 0-.088 0-.088 0 0zm35.526 34.447v1.471H82.991v-1.47c0-.432.49-.864.815-1.04l11.083-5.524h7.981l11.083 5.524c.324.176.815.608.815 1.04zm-13.12-17.011v7.25h-5.379v-7.25h5.379zm-2.769-3.19c-7.657 0-14.092-5.356-16.212-12.695-.083-.432-.241-.863-.324-1.295-.166-.775-.242-1.639-.325-2.414v-.256c0-.432-.083-.775-.083-1.207V3.206h33.813V23.67c0 .432 0 .775-.083 1.207v.256c0 .344-.083.775-.083 1.12v.087c-.083.432-.166.776-.241 1.207 0 .088 0 .176-.083.256-.083.344-.166.688-.242 1.04-2.044 7.426-8.562 12.87-16.137 12.87zm26.971-18.219c-1.712 2.159-4.157 3.542-7.333 4.141v-.088c.083-.607.166-1.12.241-1.727v-.176c.083-.607.083-1.207.083-1.814V8.56h9.778V14.095c0 .08.407 5.34-2.769 9.401zM95.779 34.2c-.242.608-.815 1.04-1.388 1.04-.166 0-.325 0-.574-.088-4.971-1.983-6.027-6.732-5.944-8.89V10.033c0-.864.648-1.551 1.463-1.551.815 0 1.464.687 1.464 1.55V26.35c0 .256-.166 4.229 3.99 5.868.913.256 1.32 1.207.989 1.982z" fill="#209CFE"/><path d="M71.93 83.04c0 .69-.124 1.37-.371 2.04a11.17 11.17 0 01-.938 1.924 16.677 16.677 0 01-1.23 1.738 53.07 53.07 0 01-1.25 1.475l-1.065.79v.07l1.455-.294h3.428V93h-8.057v-1.318c.463-.391.915-.801 1.358-1.23.442-.437.86-.883 1.25-1.339.397-.462.758-.927 1.084-1.396.332-.475.615-.944.85-1.406.24-.463.426-.915.556-1.358.137-.45.205-.879.205-1.289 0-.553-.16-.993-.478-1.318-.32-.332-.759-.498-1.319-.498-.449 0-.86.088-1.23.263a4.933 4.933 0 00-1.084.713L64 80.93a7.897 7.897 0 011.885-1.055 5.974 5.974 0 012.138-.371 5.01 5.01 0 011.514.224c.475.144.889.365 1.24.665.358.293.638.66.84 1.103.209.443.313.957.313 1.543zm16.425 5.81l.079-1.885h-.03l-.966 1.455-1.846 2.93h-.86l-2.03-2.93-.821-1.455h-.04l.06 1.865V93h-2.159v-9.14h2.569l2.265 3.417.694 1.143h.02l.702-1.201 2.12-3.36h2.558V93h-2.314v-4.15zm11.719 3.564c-.345.26-.784.466-1.318.615a6.432 6.432 0 01-1.807.235c-.664 0-1.253-.085-1.767-.254a3.313 3.313 0 01-1.309-.772c-.43-.423-.749-.963-.957-1.62a7.223 7.223 0 01-.303-2.13c0-.787.114-1.49.342-2.11.234-.618.53-1.132.889-1.542a3.357 3.357 0 011.318-.928 4.663 4.663 0 011.7-.302c.572 0 1.077.087 1.513.263.436.17.8.414 1.094.733.3.319.524.71.674 1.171.149.463.224.98.224 1.553 0 .287-.016.59-.049.908a6.54 6.54 0 01-.117.84h-5.107c0 .32.032.625.097.918.072.287.192.537.362.752.169.222.397.378.683.469.287.091.606.137.957.137a3.16 3.16 0 001.172-.206 4.18 4.18 0 00.889-.459l.82 1.73zm-3.35-6.895c-.312 0-.572.06-.78.176a1.403 1.403 0 00-.489.47c-.124.188-.215.41-.273.663a4.206 4.206 0 00-.088.762h2.998c.02-.196.03-.374.03-.537-.014-.462-.14-.834-.382-1.114-.234-.28-.573-.42-1.015-.42zm12.833 6.866a4.222 4.222 0 01-1.416.634 5.638 5.638 0 01-.84.176 5.708 5.708 0 01-.879.069c-.781 0-1.449-.117-2.002-.352a3.515 3.515 0 01-1.358-.986 4.12 4.12 0 01-.771-1.524 7.389 7.389 0 01-.244-1.963c0-.761.114-1.435.342-2.021.228-.593.53-1.104.908-1.533a3.41 3.41 0 011.426-.957c.573-.215 1.217-.322 1.933-.322.651 0 1.211.068 1.68.205.469.136.876.29 1.221.458l-.586 1.954a9.795 9.795 0 00-.957-.323 3.664 3.664 0 00-1.075-.146c-.358 0-.683.049-.976.146-.287.098-.534.251-.742.46a2.22 2.22 0 00-.498.849c-.118.345-.176.755-.176 1.23 0 .378.042.73.127 1.055.084.326.218.609.4.85.189.234.427.42.713.556.293.137.645.206 1.055.206.456 0 .866-.06 1.23-.176.371-.124.684-.251.938-.381l.547 1.836zm9.882-6.358h-3.203V93h-2.539v-6.973h-3.203V83.86h8.945v2.168zm.752 2.412c0-.71.095-1.36.284-1.953.195-.592.478-1.1.849-1.523.378-.43.84-.762 1.387-.996.553-.241 1.188-.361 1.904-.361.729 0 1.371.123 1.924.37a3.68 3.68 0 011.377 1.016c.365.43.638.94.82 1.533.189.586.284 1.224.284 1.914s-.095 1.332-.284 1.924a4.386 4.386 0 01-.82 1.534c-.365.43-.824.768-1.377 1.015-.553.241-1.195.361-1.924.361-.716 0-1.351-.117-1.904-.351a3.986 3.986 0 01-1.387-.996 4.44 4.44 0 01-.849-1.533 6.4 6.4 0 01-.284-1.954zm2.51 0c0 .489.046.912.137 1.27.091.352.218.641.381.87.169.22.371.387.605.497.235.104.498.156.791.156.345 0 .638-.068.879-.205.241-.143.436-.338.586-.586.156-.247.27-.54.342-.879.071-.345.107-.719.107-1.123 0-.403-.036-.774-.107-1.113a2.679 2.679 0 00-.342-.888 1.604 1.604 0 00-.586-.577c-.241-.143-.534-.215-.879-.215-.293 0-.556.056-.791.166-.234.105-.436.27-.605.499-.163.22-.29.51-.381.869a5.077 5.077 0 00-.137 1.26z" fill="#494949"/><defs><clipPath id="blclip0_718_1393"><path fill="#fff" transform="translate(0 60)" d="M0 0h200v46H0z"/></clipPath></defs></symbol><symbol fill="none" viewBox="0 0 200 112" id="rating-position-3" xmlns="http://www.w3.org/2000/svg"><g clip-path="url(#bmclip0_718_1400)"><path d="M189.589 78.072l-.342.489.342.488 9.121 12.999c.52.741.584 1.709.167 2.512h0a2.426 2.426 0 01-2.152 1.306h-25.007v6.454a2.425 2.425 0 01-2.425 2.425H30.708a2.425 2.425 0 01-2.425-2.425v-6.454H3.274a2.425 2.425 0 01-2.151-1.306h0a2.424 2.424 0 01.166-2.512h0l9.121-13 .343-.487-.343-.489-9.12-12.999s0 0 0 0a2.424 2.424 0 01-.167-2.511h0a2.426 2.426 0 012.151-1.307h27.433a2.426 2.426 0 012.425 2.425v6.02H166.868v-6.02a2.425 2.425 0 012.425-2.425h27.432c.905 0 1.735.504 2.152 1.306h0a2.426 2.426 0 01-.167 2.512h0l-9.121 13zM8.879 89.677l-.94 1.339h20.344V66.105H7.938l.94 1.339 6.823 9.724s0 0 0 0c.586.835.586 1.95 0 2.786l-6.823 9.723zm157.139 10.217h.85V74.551H33.133V99.893h132.885zm5.7-9.728v.85H192.06l-.938-1.339-6.823-9.723a2.426 2.426 0 010-2.787l6.823-9.723.939-1.338H171.718V90.165z" fill="#826FFF" stroke="#fff" stroke-width="1.7"/></g><path d="M131.629 13.822V8.554c-.166-1.815-1.305-3.022-2.935-3.198h-9.86V3.022c0-1.639-1.305-3.022-2.852-3.022H81.769c-1.546 0-2.851 1.383-2.851 3.022v2.334H69.955c-1.63.088-2.769 1.383-2.935 3.198v5.268c-.083 1.383-.49 14.765 13.037 17.012 2.12 6.3 7.008 11.312 13.202 13.206v8.546l-10.758 5.436s-.083 0-.083.088c-1.546.952-2.361 2.335-2.361 3.886v1.814c.166 1.727 1.305 2.846 3.017 2.846h31.694c1.712 0 2.934-1.119 3.017-2.846V61.995c0-1.55-.815-2.933-2.361-3.885l-.083-.088-10.592-5.356V43.96c5.945-1.902 10.758-6.819 12.953-13.038 4.564-.608 8.065-2.415 10.509-5.436 3.75-4.757 3.418-10.8 3.418-11.664zM79.242 27.468c-10.019-2.502-9.287-12.863-9.204-13.382V8.73v-.176h8.88V23.75c0 .608 0 1.12.083 1.727v.176c.075.607.158 1.119.241 1.814 0-.088 0-.088 0 0zm35.526 34.447v1.471H82.991v-1.47c0-.432.49-.864.815-1.04l11.083-5.524h7.981l11.083 5.524c.324.176.815.608.815 1.04zm-13.12-17.011v7.25h-5.379v-7.25h5.379zm-2.769-3.19c-7.657 0-14.092-5.356-16.212-12.695-.083-.432-.241-.863-.324-1.295-.166-.775-.242-1.639-.325-2.414v-.256c0-.432-.083-.775-.083-1.207V3.206h33.813V23.67c0 .432 0 .775-.083 1.207v.256c0 .344-.083.775-.083 1.12v.087c-.083.432-.166.776-.241 1.207 0 .088 0 .176-.083.256-.083.344-.166.688-.242 1.04-2.044 7.426-8.562 12.87-16.137 12.87zm26.971-18.219c-1.712 2.159-4.157 3.542-7.333 4.141v-.088c.083-.607.166-1.12.241-1.727v-.176c.083-.607.083-1.207.083-1.814V8.56h9.778V14.095c0 .08.407 5.34-2.769 9.401zM95.779 34.2c-.242.608-.815 1.04-1.388 1.04-.166 0-.325 0-.574-.088-4.971-1.983-6.027-6.732-5.944-8.89V10.033c0-.864.648-1.551 1.463-1.551.815 0 1.464.687 1.464 1.55V26.35c0 .256-.166 4.229 3.99 5.868.913.256 1.32 1.207.989 1.982z" fill="#826FFF"/><path d="M67.281 91.047c.423 0 .785-.052 1.084-.156.306-.111.557-.258.752-.44.195-.189.339-.403.43-.644.091-.248.137-.508.137-.782 0-.69-.231-1.194-.694-1.513-.456-.326-1.165-.489-2.129-.489h-1.299v-1.406l2.344-2.94.899-.82-1.426.118h-3.037v-2.217h7.441v1.426l-2.51 3.183-1.123.84.87-.03c.449.046.872.157 1.27.333a3.251 3.251 0 011.767 1.846c.175.442.263.957.263 1.542 0 .743-.123 1.39-.37 1.944a3.65 3.65 0 01-1.036 1.357c-.443.358-.97.625-1.582.801a7.266 7.266 0 01-2.012.264 11.271 11.271 0 01-1.865-.157 6.831 6.831 0 01-.87-.185 4.183 4.183 0 01-.692-.264l.722-2.187c.358.156.755.293 1.192.41.436.11.927.166 1.474.166zm21.075-2.197l.078-1.885h-.03l-.966 1.455-1.846 2.93h-.86l-2.03-2.93-.821-1.455h-.04l.06 1.865V93h-2.159v-9.14h2.569l2.265 3.417.694 1.143h.02l.702-1.201 2.12-3.36h2.558V93h-2.314v-4.15zm11.718 3.564c-.345.26-.784.466-1.318.615a6.432 6.432 0 01-1.807.235c-.664 0-1.253-.085-1.767-.254a3.313 3.313 0 01-1.309-.772c-.43-.423-.749-.963-.957-1.62a7.223 7.223 0 01-.303-2.13c0-.787.114-1.49.342-2.11.234-.618.53-1.132.889-1.542a3.357 3.357 0 011.318-.928 4.663 4.663 0 011.7-.302c.572 0 1.077.087 1.513.263.436.17.8.414 1.094.733.3.319.524.71.674 1.171.149.463.224.98.224 1.553 0 .287-.016.59-.049.908a6.54 6.54 0 01-.117.84h-5.107c0 .32.032.625.097.918.072.287.192.537.362.752.169.222.397.378.683.469.287.091.606.137.957.137a3.16 3.16 0 001.172-.206 4.18 4.18 0 00.889-.459l.82 1.73zm-3.35-6.895c-.312 0-.572.06-.78.176a1.403 1.403 0 00-.489.47c-.124.188-.215.41-.273.663a4.206 4.206 0 00-.088.762h2.998c.02-.196.03-.374.03-.537-.014-.462-.14-.834-.382-1.114-.234-.28-.573-.42-1.015-.42zm12.833 6.866a4.222 4.222 0 01-1.416.634 5.638 5.638 0 01-.84.176 5.708 5.708 0 01-.879.069c-.781 0-1.449-.117-2.002-.352a3.515 3.515 0 01-1.358-.986 4.12 4.12 0 01-.771-1.524 7.389 7.389 0 01-.244-1.963c0-.761.114-1.435.342-2.021.228-.593.53-1.104.908-1.533a3.41 3.41 0 011.426-.957c.573-.215 1.217-.322 1.933-.322.651 0 1.211.068 1.68.205.469.136.876.29 1.221.458l-.586 1.954a9.795 9.795 0 00-.957-.323 3.664 3.664 0 00-1.075-.146c-.358 0-.683.049-.976.146-.287.098-.534.251-.742.46a2.22 2.22 0 00-.498.849c-.118.345-.176.755-.176 1.23 0 .378.042.73.127 1.055.084.326.218.609.4.85.189.234.427.42.713.556.293.137.645.206 1.055.206.456 0 .866-.06 1.23-.176.371-.124.684-.251.938-.381l.547 1.836zm9.882-6.358h-3.203V93h-2.539v-6.973h-3.203V83.86h8.945v2.168zm.752 2.412c0-.71.095-1.36.284-1.953.195-.592.478-1.1.849-1.523.378-.43.84-.762 1.387-.996.553-.241 1.188-.361 1.904-.361.729 0 1.371.123 1.924.37a3.68 3.68 0 011.377 1.016c.365.43.638.94.82 1.533.189.586.284 1.224.284 1.914s-.095 1.332-.284 1.924a4.386 4.386 0 01-.82 1.534c-.365.43-.824.768-1.377 1.015-.553.241-1.195.361-1.924.361-.716 0-1.351-.117-1.904-.351a3.986 3.986 0 01-1.387-.996 4.44 4.44 0 01-.849-1.533 6.4 6.4 0 01-.284-1.954zm2.51 0c0 .489.046.912.137 1.27.091.352.218.641.381.87.169.22.371.387.605.497.235.104.498.156.791.156.345 0 .638-.068.879-.205.241-.143.436-.338.586-.586.156-.247.27-.54.342-.879.071-.345.107-.719.107-1.123 0-.403-.036-.774-.107-1.113a2.679 2.679 0 00-.342-.888 1.604 1.604 0 00-.586-.577c-.241-.143-.534-.215-.879-.215-.293 0-.556.056-.791.166-.234.105-.436.27-.605.499-.163.22-.29.51-.381.869a5.077 5.077 0 00-.137 1.26z" fill="#494949"/><defs><clipPath id="bmclip0_718_1400"><path fill="#fff" transform="translate(0 60)" d="M0 0h200v46H0z"/></clipPath></defs></symbol><symbol viewBox="0 0 0 0" id="sprite" xmlns="http://www.w3.org/2000/svg"/><symbol fill="none" viewBox="0 0 32 32" id="vk" xmlns="http://www.w3.org/2000/svg"><path fill="currentColor" d="M16 1.229c-8.158 0-14.771 6.613-14.771 14.77 0 8.159 6.613 14.772 14.771 14.772 8.158 0 14.771-6.613 14.771-14.771 0-8.158-6.613-14.771-14.771-14.771zm7.939 20.376c-.63.395-3.192.512-3.813.061-.34-.247-.65-.556-.946-.85-.207-.206-.442-.306-.62-.529-.144-.183-.244-.398-.396-.579-.258-.303-.654-.56-.968-.19-.472.556.074 1.649-.555 2.065-.212.14-.425.18-.689.16l-.584.026c-.344.007-.888.01-1.278-.06-.436-.079-.796-.317-1.19-.492-.749-.332-1.461-.784-2.004-1.41-1.476-1.706-3.459-4.051-4.229-6.196-.158-.44-.577-1.313-.18-1.69.54-.393 3.188-.503 3.6.103.168.246.274.607.393.886.148.348.228.676.459.984.204.274.355.549.513.848.178.336.345.659.561.968.147.21.534.63.78.66.597.077.56-1.375.515-1.73a6.856 6.856 0 01-.042-1.05c.01-.296.036-.713-.139-.954-.285-.394-.921-.1-.97-.628.104-.15.082-.284.783-.515a2.91 2.91 0 011.274-.146c.742.06 1.53-.142 2.246.099.685.23.579 1.204.556 1.787-.031.796.002 1.573 0 2.38-.001.368-.016.726.433.696.42-.027.463-.381.664-.673.279-.407.535-.82.82-1.225.383-.549.498-1.165.859-1.726.129-.2.24-.628.439-.787.15-.12.436-.058.618-.058h.433c.331 0 .669-.002 1.01.01.49.017 1.039-.096 1.525-.027 2.098.296-2.637 4.78-2.39 5.58.17.553 1.25 1.171 1.64 1.624.517.603 2.11 1.802.872 2.578z"/></symbol><symbol fill="none" viewBox="0 0 32 32" id="youtube" xmlns="http://www.w3.org/2000/svg"><path fill="currentColor" fill-rule="evenodd" d="M1.229 16C1.229 7.842 7.842 1.229 16 1.229c8.158 0 14.771 6.613 14.771 14.771 0 8.158-6.613 14.771-14.771 14.771-8.158 0-14.771-6.613-14.771-14.771zm13.278 5.391l1.59.049c1.557-.049 3.199-.1 4.843-.158.314-.013.635-.037.943-.104.792-.177 1.267-.692 1.49-1.472.197-.678.23-1.378.263-2.076v-.001a30.76 30.76 0 00-.054-4.123c-.045-.548-.124-1.087-.333-1.602-.272-.67-.782-1.054-1.466-1.146a20.703 20.703 0 00-2.258-.152 175.45 175.45 0 00-5.226-.04c-1.053.01-2.103.064-3.155.119l-.723.037c-.472.021-.886.213-1.24.533-.335.301-.474.71-.589 1.127-.178.651-.205 1.327-.233 1.999l-.006.143c-.05 1.274-.05 2.547.055 3.82.048.543.115 1.076.3 1.594.229.643.676 1.036 1.323 1.188.345.082.704.137 1.058.152 1.13.045 2.26.079 3.418.113zm4.051-5.575c-1.39.728-2.753 1.44-4.132 2.16V13.64l2.118 1.115 2.014 1.06z" clip-rule="evenodd"/></symbol></svg>